<?xml version="1.0" encoding="UTF-8"?>
<svg id="Livello_2" data-name="Livello 2" xmlns="http://www.w3.org/2000/svg" xmlns:xlink="http://www.w3.org/1999/xlink" viewBox="0 0 423.07 447.29">
    <defs>
        <style>
            .cls-1 {
            fill: #bd5136;
            }

            .cls-2 {
            fill: #6a9ca6;
            }

            .cls-3 {
            clip-path: url(#clippath-20);
            }

            .cls-4 {
            fill: #95cceb;
            }

            .cls-5 {
            clip-path: url(#clippath-11);
            }

            .cls-6 {
            clip-path: url(#clippath-16);
            }

            .cls-7 {
            fill: #667db3;
            }

            .cls-8 {
            fill: #a5bdd1;
            opacity: .13;
            }

            .cls-8, .cls-9, .cls-10 {
            isolation: isolate;
            }

            .cls-11 {
            fill: #e3b84c;
            }

            .cls-12 {
            fill: #9f6a64;
            }

            .cls-13 {
            fill: #583834;
            }

            .cls-14 {
            fill: #eaad96;
            }

            .cls-15 {
            fill: #e6e9ec;
            }

            .cls-16 {
            fill: #db902e;
            }

            .cls-17 {
            fill: #a6abb7;
            }

            .cls-18 {
            fill: #e66443;
            }

            .cls-19 {
            fill: #ab3632;
            }

            .cls-20 {
            fill: #679ab6;
            }

            .cls-21 {
            clip-path: url(#clippath-2);
            }

            .cls-22 {
            fill: #3a3752;
            }

            .cls-23 {
            stroke: #73283a;
            stroke-width: .91px;
            }

            .cls-23, .cls-24, .cls-25, .cls-26 {
            fill: none;
            }

            .cls-23, .cls-24, .cls-26 {
            stroke-miterlimit: 10;
            }

            .cls-27 {
            fill: #d58300;
            }

            .cls-28 {
            clip-path: url(#clippath-13);
            }

            .cls-29 {
            fill: #f1e7db;
            }

            .cls-30 {
            fill: #d8d3d9;
            }

            .cls-31 {
            clip-path: url(#clippath-15);
            }

            .cls-32 {
            clip-path: url(#clippath-6);
            }

            .cls-33 {
            fill: #73283a;
            }

            .cls-34 {
            fill: #8f6d52;
            }

            .cls-35 {
            fill: #372b2c;
            }

            .cls-36 {
            fill: #faebd9;
            }

            .cls-37 {
            clip-path: url(#clippath-7);
            }

            .cls-38 {
            fill: #64704d;
            }

            .cls-39 {
            clip-path: url(#clippath-21);
            }

            .cls-40 {
            fill: #707070;
            }

            .cls-41 {
            fill: #9d9ba7;
            }

            .cls-9 {
            fill: #b89692;
            opacity: .5;
            }

            .cls-42 {
            clip-path: url(#clippath-1);
            }

            .cls-43 {
            clip-path: url(#clippath-4);
            }

            .cls-24 {
            stroke: #242430;
            stroke-width: .86px;
            }

            .cls-44 {
            fill: #c9a39f;
            }

            .cls-10 {
            fill: #d6cabc;
            opacity: .76;
            }

            .cls-45 {
            fill: #76b2d2;
            }

            .cls-46 {
            fill: #808f62;
            }

            .cls-47 {
            fill: #675fa9;
            }

            .cls-48 {
            clip-path: url(#clippath-12);
            }

            .cls-49 {
            fill: #8077c7;
            }

            .cls-50 {
            fill: url(#Sfumatura_senza_nome);
            }

            .cls-51 {
            fill: #cf423d;
            }

            .cls-52 {
            clip-path: url(#clippath-22);
            }

            .cls-53 {
            fill: #ece6e8;
            }

            .cls-54 {
            fill: #e8dedc;
            }

            .cls-55 {
            clip-path: url(#clippath-9);
            }

            .cls-56 {
            clip-path: url(#clippath);
            }

            .cls-57 {
            fill: #a33953;
            }

            .cls-58 {
            clip-path: url(#clippath-19);
            }

            .cls-59 {
            fill: #999;
            }

            .cls-60 {
            fill: #b3d9e1;
            }

            .cls-61 {
            clip-path: url(#clippath-3);
            }

            .cls-62 {
            fill: #e6d9ca;
            }

            .cls-63 {
            fill: #39354f;
            }

            .cls-26 {
            stroke: #785c45;
            stroke-width: 1.06px;
            }

            .cls-64 {
            fill: #4e86d2;
            }

            .cls-65 {
            clip-path: url(#clippath-8);
            }

            .cls-66 {
            fill: #e6e0ec;
            }

            .cls-67 {
            fill: #bf5a73;
            }

            .cls-68 {
            clip-path: url(#clippath-18);
            }

            .cls-69 {
            clip-path: url(#clippath-14);
            }

            .cls-70 {
            fill: #ffe7d9;
            }

            .cls-71 {
            clip-path: url(#clippath-17);
            }

            .cls-72 {
            clip-path: url(#clippath-5);
            }

            .cls-73 {
            fill: #4b4679;
            }

            .cls-74 {
            fill: #8a8a8a;
            }

            .cls-75 {
            fill: #716e80;
            }

            .cls-76 {
            clip-path: url(#clippath-10);
            }

            .cls-77 {
            clip-path: url(#clippath-23);
            }

            .cls-78 {
            fill: #ececec;
            }

            .cls-79 {
            fill: #614630;
            }

            .cls-80 {
            fill: #7ab4bf;
            }

            .cls-81 {
            fill: #5c70a1;
            }

            .cls-82 {
            fill: #d9a524;
            }
        </style>
        <clipPath id="clippath">
            <path class="cls-25" d="m327.9,93.26v-22.31h-85.72c-6.16,0-11.15,4.99-11.15,11.15h0c0,6.16,4.99,11.15,11.15,11.15h85.72Z"/>
        </clipPath>
        <clipPath id="clippath-1">
            <path class="cls-25" d="m327.92,73.44h-85.01c-4.75,0-8.61,3.85-8.61,8.61h0c0,4.75,3.85,8.61,8.61,8.61h85.01v-17.21Z"/>
        </clipPath>
        <clipPath id="clippath-2">
            <path class="cls-25" d="m327.92,73.44h-85.01c-4.75,0-8.61,3.85-8.61,8.61h0c0,4.75,3.85,8.61,8.61,8.61h85.01v-17.21Z"/>
        </clipPath>
        <clipPath id="clippath-3">
            <path class="cls-25" d="m327.92,73.44h-85.01c-4.75,0-8.61,3.85-8.61,8.61h0c0,4.75,3.85,8.61,8.61,8.61h85.01v-17.21Z"/>
        </clipPath>
        <clipPath id="clippath-4">
            <path class="cls-25" d="m352.29,337.15v-34.55h-78.21c-9.54,0-17.28,7.73-17.28,17.28h0c0,9.54,7.73,17.28,17.28,17.28h78.21Z"/>
        </clipPath>
        <clipPath id="clippath-5">
            <path class="cls-25" d="m352.33,306.45h-77.12c-7.36,0-13.33,5.97-13.33,13.33h0c0,7.36,5.97,13.33,13.33,13.33h77.12v-26.66Z"/>
        </clipPath>
        <clipPath id="clippath-6">
            <path class="cls-25" d="m352.33,306.45h-77.12c-7.36,0-13.33,5.97-13.33,13.33h0c0,7.36,5.97,13.33,13.33,13.33h77.12v-26.66Z"/>
        </clipPath>
        <clipPath id="clippath-7">
            <path class="cls-25" d="m352.33,306.45h-77.12c-7.36,0-13.33,5.97-13.33,13.33h0c0,7.36,5.97,13.33,13.33,13.33h77.12v-26.66Z"/>
        </clipPath>
        <clipPath id="clippath-8">
            <path class="cls-25" d="m297.02,447.29h36.56v-124.91c0-5.51-4.47-9.98-9.98-9.98h-16.6c-5.51,0-9.98,4.47-9.98,9.98v124.91h0Z"/>
        </clipPath>
        <clipPath id="clippath-9">
            <path class="cls-25" d="m382.79,366.39h-122.6c-3.69,0-6.68,2.99-6.68,6.68v14.05c0,3.69,2.99,6.68,6.68,6.68h122.6v-27.41Z"/>
        </clipPath>
        <clipPath id="clippath-10">
            <path class="cls-25" d="m382.79,366.39h-122.6c-3.69,0-6.68,2.99-6.68,6.68v14.05c0,3.69,2.99,6.68,6.68,6.68h122.6v-27.41Z"/>
        </clipPath>
        <clipPath id="clippath-11">
            <path class="cls-25" d="m382.79,366.39h-122.6c-3.69,0-6.68,2.99-6.68,6.68v14.05c0,3.69,2.99,6.68,6.68,6.68h122.6v-27.41Z"/>
        </clipPath>
        <clipPath id="clippath-12">
            <path class="cls-25" d="m257.22,65.55h27.89v75.71c0,4.2-3.41,7.61-7.61,7.61h-12.66c-4.21,0-7.61-3.41-7.61-7.61v-75.71h0Z"/>
        </clipPath>
        <clipPath id="clippath-13">
            <path class="cls-25" d="m312.85,117.47h-73.94c-2.82,0-5.1-2.28-5.1-5.1v-10.72c0-2.82,2.28-5.1,5.1-5.1h73.94v20.91h0Z"/>
        </clipPath>
        <clipPath id="clippath-14">
            <path class="cls-25" d="m312.85,117.47h-73.94c-2.82,0-5.1-2.28-5.1-5.1v-10.72c0-2.82,2.28-5.1,5.1-5.1h73.94v20.91h0Z"/>
        </clipPath>
        <clipPath id="clippath-15">
            <path class="cls-25" d="m312.85,117.47h-73.94c-2.82,0-5.1-2.28-5.1-5.1v-10.72c0-2.82,2.28-5.1,5.1-5.1h73.94v20.91h0Z"/>
        </clipPath>
        <clipPath id="clippath-16">
            <path class="cls-25" d="m138.03,361.92v-24.77h104.33c6.84,0,12.39,5.55,12.39,12.39h0c0,6.84-5.55,12.39-12.39,12.39h-104.33Z"/>
        </clipPath>
        <clipPath id="clippath-17">
            <path class="cls-25" d="m251.11,359.03h-103.55c-5.28,0-9.56-4.28-9.56-9.56h0c0-5.28,4.28-9.56,9.56-9.56h103.55v19.11Z"/>
        </clipPath>
        <clipPath id="clippath-18">
            <path class="cls-25" d="m251.11,342.82h-103.55c-5.28,0-9.56-4.28-9.56-9.56h0c0-5.28,4.28-9.56,9.56-9.56h103.55v19.11Z"/>
        </clipPath>
        <clipPath id="clippath-19">
            <path class="cls-25" d="m138.01,339.91h103.55c5.28,0,9.56,4.28,9.56,9.56h0c0,5.28-4.28,9.56-9.56,9.56h-103.55v-19.11Z"/>
        </clipPath>
        <clipPath id="clippath-20">
            <path class="cls-25" d="m345.04,39.04V13.43h-83.79c-7.07,0-12.8,5.73-12.8,12.8h0c0,7.07,5.73,12.8,12.8,12.8,0,0,83.79,0,83.79,0Z"/>
        </clipPath>
        <clipPath id="clippath-21">
            <path class="cls-25" d="m345.07,16.29h-82.98c-5.45,0-9.88,4.42-9.88,9.88h0c0,5.46,4.42,9.88,9.88,9.88h82.98v-19.75Z"/>
        </clipPath>
        <clipPath id="clippath-22">
            <path class="cls-25" d="m345.07,16.29h-82.98c-5.45,0-9.88,4.42-9.88,9.88h0c0,5.46,4.42,9.88,9.88,9.88h82.98v-19.75Z"/>
        </clipPath>
        <clipPath id="clippath-23">
            <path class="cls-25" d="m345.07,16.29h-82.98c-5.45,0-9.88,4.42-9.88,9.88h0c0,5.46,4.42,9.88,9.88,9.88h82.98v-19.75Z"/>
        </clipPath>
        <linearGradient id="Sfumatura_senza_nome" data-name="Sfumatura senza nome" x1="49.31" y1="151.5" x2="51.13" y2="174" gradientTransform="translate(125.91 398.62) rotate(-180)" gradientUnits="userSpaceOnUse">
            <stop offset="0" stop-color="#5b595d"/>
            <stop offset="1" stop-color="#6b637d"/>
        </linearGradient>
    </defs>
    <g id="Livello_1-2" data-name="Livello 1">
        <g id="OBJECTS">
            <path class="cls-54" d="m.6,402.08c4.53,6.4,31.28,9.57,44.47,10.21,55.61,2.69,111.54,3.1,167.25,1.24,29.69-.99,99.39,8.57,183.91-4.9,6.8-1.08,45.75-13.4,15.44-17.75-55.56-7.98-135.69-8.83-256.32-9.93-6.23-.06-33.17,1.69-63.77,4.08-23.43,1.83-99.03,5.69-90.98,17.05Z"/>
            <g>
                <g>
                    <g>
                        <path class="cls-40" d="m249.16,93.26v-22.31h-66.2c-6.16,0-11.15,4.99-11.15,11.15h0c0,6.16,4.99,11.15,11.15,11.15h66.2Z"/>
                        <path class="cls-59" d="m190.43,70.89h42.07c-6.16,0-11.15,4.99-11.15,11.15s4.99,11.15,11.15,11.15h-42.07c-6.16,0-11.15-4.99-11.15-11.15h0c0-6.16,4.99-11.15,11.16-11.15Z"/>
                        <path class="cls-15" d="m327.9,90.56v2.7h-144.94c-2.78,0-5.31-1.02-7.27-2.7h152.2Z"/>
                    </g>
                    <g>
                        <path id="SVGID" class="cls-40" d="m327.9,93.26v-22.31h-85.72c-6.16,0-11.15,4.99-11.15,11.15h0c0,6.16,4.99,11.15,11.15,11.15h85.72Z"/>
                        <g class="cls-56">
                            <path class="cls-74" d="m327.9,93.26v-22.31h-85.72c-6.16,0-11.15,4.99-11.15,11.15h0c0,6.16,4.99,11.15,11.15,11.15h85.72Z"/>
                        </g>
                    </g>
                    <g>
                        <g class="cls-42">
                            <rect class="cls-29" x="234.3" y="73.44" width="93.62" height="17.22"/>
                        </g>
                        <g class="cls-21">
                            <rect class="cls-62" x="234.3" y="73.44" width="93.62" height="4.56"/>
                        </g>
                        <g class="cls-61">
                            <path class="cls-63" d="m234.7,92.44h-1.79v-20.79h1.98c3.51,6.47,3.58,14.69-.19,20.79Z"/>
                        </g>
                    </g>
                </g>
                <g>
                    <path class="cls-82" d="m302.42,225.4h-144.1c-3.02,0-5.47,2.45-5.47,5.47v28.78c0,3.02,2.45,5.47,5.47,5.47h144.1v-39.72Z"/>
                    <path class="cls-70" d="m302.42,229.2v-3.8h-144.1c-2.44,0-4.5,1.6-5.21,3.8h149.3Z"/>
                    <path class="cls-27" d="m375.58,225.41v5.15h-13.29v29.32h13.29v5.26h-75.88c-3.02,0-5.47-2.45-5.47-5.47v-28.78c0-3.02,2.45-5.47,5.47-5.47h75.88Z"/>
                    <rect class="cls-29" x="299.32" y="230.55" width="72.11" height="29.32"/>
                    <rect class="cls-62" x="299.32" y="230.55" width="72.11" height="9.37"/>
                    <path class="cls-63" d="m299.32,230.87c1.48.41,5.08,3.72,5.08,14.34,0,11.95-5.08,14.66-5.08,14.66v-28.99Z"/>
                    <path class="cls-25" d="m371.44,259.87h-69.95c-1.2,0-2.17-.97-2.17-2.17v-24.98c0-1.2.97-2.17,2.17-2.17h69.95v29.31Z"/>
                    <rect class="cls-27" x="165.35" y="235.24" width="117.39" height="20.92"/>
                </g>
                <g>
                    <path class="cls-45" d="m158.18,121.12h126.98c1.23,0,2.23,1,2.23,2.23v20.9c0,1.23-1,2.23-2.23,2.23h-126.98v-25.37Z"/>
                    <rect class="cls-4" x="172.12" y="126.31" width="106.72" height="13.64"/>
                    <path class="cls-20" d="m107.51,121.13v1.97h30.98v21.37h-30.98v2.03h51.58c1.82,0,3.3-1.48,3.3-3.3v-18.77c0-1.82-1.48-3.3-3.3-3.3h-51.58Z"/>
                    <rect class="cls-29" x="109.64" y="123.09" width="50.13" height="21.37"/>
                    <rect class="cls-62" x="109.64" y="135.4" width="50.13" height="5.18"/>
                    <path class="cls-22" d="m159.77,123.26c-.86,1.22-2.29,2.4-2.29,9.57,0,7.57,1.57,10.87,1.95,11.63h.34v-21.21Z"/>
                    <path class="cls-25" d="m109.64,144.47h49.02c.62,0,1.11-.5,1.11-1.11v-19.14c0-.62-.5-1.11-1.11-1.11h-49.02v21.37Z"/>
                    <path class="cls-78" d="m107.51,123.26h179.87c-.05-1.19-1.02-2.14-2.22-2.14h-126.98s-50.67,0-50.67,0v2.13Z"/>
                </g>
                <g>
                    <path class="cls-45" d="m267,38.53h-103.17c-1.23,0-2.23,1-2.23,2.23v27.9c0,1.23,1,2.23,2.23,2.23h103.17v-32.37Z"/>
                    <rect class="cls-4" x="170.14" y="43.72" width="82.91" height="20.64"/>
                    <path class="cls-20" d="m317.66,38.53v1.97h-30.98v28.37h30.98v2.03h-51.58c-1.82,0-3.3-1.48-3.3-3.3v-25.77c0-1.82,1.48-3.3,3.3-3.3h51.58Z"/>
                    <rect class="cls-29" x="265.4" y="40.5" width="50.13" height="28.37"/>
                    <rect class="cls-62" x="265.4" y="40.5" width="50.13" height="5.18"/>
                    <path class="cls-22" d="m265.4,40.66c.86,1.22,3.29,7.4,3.29,14.57,0,7.57-2.57,12.87-2.95,13.64h-.34v-28.21Z"/>
                    <path class="cls-25" d="m315.54,68.87h-49.02c-.61,0-1.11-.5-1.11-1.11v-26.14c0-.61.5-1.11,1.11-1.11h49.02v28.37Z"/>
                    <path class="cls-78" d="m317.66,40.66h-156.06c.05-1.19,1.02-2.14,2.22-2.14h103.17s50.67,0,50.67,0v2.13Z"/>
                </g>
                <g>
                    <g>
                        <path class="cls-80" d="m284.9,337.15v-34.55h-102.52c-9.54,0-17.28,7.73-17.28,17.28h0c0,9.54,7.74,17.28,17.28,17.28h102.52Z"/>
                        <path class="cls-60" d="m189.3,302.6h74.03c-9.54,0-17.28,7.73-17.28,17.28s7.73,17.28,17.28,17.28h-74.03c-9.54,0-17.28-7.73-17.28-17.28h0c0-9.54,7.74-17.28,17.28-17.28Z"/>
                        <polygon class="cls-15" points="352.29 306.78 352.29 302.6 189.79 302.6 279.3 306.78 352.29 306.78"/>
                    </g>
                    <g class="cls-43">
                        <path class="cls-2" d="m352.29,337.15v-34.55h-78.21c-9.54,0-17.28,7.73-17.28,17.28h0c0,9.54,7.73,17.28,17.28,17.28h78.21Z"/>
                    </g>
                    <g>
                        <g class="cls-72">
                            <rect class="cls-29" x="261.88" y="306.45" width="90.45" height="26.66"/>
                        </g>
                        <g class="cls-32">
                            <rect class="cls-10" x="261.88" y="304.69" width="90.45" height="7.33"/>
                        </g>
                        <g class="cls-37">
                            <path class="cls-22" d="m262.5,335.88h-2.77v-32.19h3.06c5.43,10.01,5.55,22.75-.29,32.19Z"/>
                        </g>
                    </g>
                </g>
                <g>
                    <g>
                        <path class="cls-47" d="m261.13,398.12v-36.56h-108.7c-4.34,0-7.87,3.52-7.87,7.86v20.83c0,4.34,3.52,7.86,7.87,7.86h108.7Z"/>
                        <path class="cls-73" d="m166.57,361.56h9.65c-4.91,0-8.88,3.98-8.88,8.88v18.8c0,4.91,3.98,8.88,8.88,8.88h-9.65c-5.49,0-9.93-4.45-9.93-9.93v-16.7c0-5.48,4.45-9.93,9.93-9.93Z"/>
                        <path class="cls-73" d="m232.26,361.56h9.64c-4.91,0-8.88,3.98-8.88,8.88v18.8c0,4.91,3.98,8.88,8.88,8.88h-9.64c-5.48,0-9.93-4.45-9.93-9.93v-16.7c0-5.48,4.45-9.93,9.93-9.93Z"/>
                    </g>
                    <g class="cls-65">
                        <rect class="cls-49" x="247.85" y="361.56" width="134.89" height="36.56"/>
                    </g>
                    <g>
                        <g class="cls-55">
                            <rect class="cls-29" x="253.51" y="366.39" width="129.28" height="27.41"/>
                        </g>
                        <g class="cls-76">
                            <rect class="cls-10" x="253.51" y="365.83" width="129.28" height="8.84"/>
                        </g>
                        <g class="cls-5">
                            <path class="cls-22" d="m252.5,366.39v27.41s6.53-3.53,6.53-15.99c0-11.35-6.53-11.42-6.53-11.42Z"/>
                        </g>
                    </g>
                    <path class="cls-66" d="m152.43,361.56h230.32v3.83h-237.06c1.37-2.29,3.88-3.83,6.74-3.83Z"/>
                    <path class="cls-66" d="m382.75,394.54v3.58h-230.32c-2.76,0-5.19-1.43-6.59-3.58h236.91Z"/>
                </g>
                <g>
                    <g>
                        <path class="cls-16" d="m239.63,93.26v27.89h-82.92c-3.31,0-6-2.69-6-6v-15.89c0-3.31,2.69-6,6-6h82.92Z"/>
                        <path class="cls-11" d="m167.32,121.15h46.5c-3.74,0-6.77-3.03-6.77-6.77v-14.34c0-3.74,3.03-6.77,6.77-6.77h-46.5c-4.18,0-7.57,3.39-7.57,7.57v12.74c0,4.18,3.39,7.57,7.57,7.57Z"/>
                    </g>
                    <g class="cls-48">
                        <rect class="cls-11" x="229.5" y="93.26" width="83.32" height="27.89"/>
                    </g>
                    <g>
                        <g class="cls-28">
                            <rect class="cls-29" x="233.81" y="96.55" width="79.04" height="20.91"/>
                        </g>
                        <g class="cls-69">
                            <rect class="cls-10" x="233.81" y="96.55" width="79.04" height="6.74"/>
                        </g>
                        <g class="cls-31">
                            <path class="cls-22" d="m233.04,117.47v-20.91s5.87,0,4.98,12.2c-.63,8.63-4.98,8.71-4.98,8.71Z"/>
                        </g>
                    </g>
                </g>
                <g>
                    <g>
                        <path class="cls-38" d="m234.61,361.92v-24.77h73.51c6.84,0,12.39,5.55,12.39,12.39h0c0,6.84-5.55,12.39-12.39,12.39h-73.51Z"/>
                        <path class="cls-46" d="m300.65,337.15h-7.59c6.84,0,12.39,5.55,12.39,12.39s-5.55,12.39-12.39,12.39h7.59c6.84,0,12.39-5.55,12.39-12.39h0c0-6.84-5.54-12.39-12.39-12.39Z"/>
                        <path class="cls-46" d="m260.49,337.15h-7.59c6.84,0,12.39,5.55,12.39,12.39s-5.55,12.39-12.39,12.39h7.59c6.84,0,12.39-5.55,12.39-12.39h0c0-6.84-5.55-12.39-12.39-12.39Z"/>
                        <polygon class="cls-15" points="138.03 340.15 138.03 337.15 302.8 337.15 238.63 340.15 138.03 340.15"/>
                    </g>
                    <g class="cls-6">
                        <path class="cls-46" d="m138.03,361.92v-24.77h104.33c6.84,0,12.39,5.55,12.39,12.39h0c0,6.84-5.55,12.39-12.39,12.39h-104.33Z"/>
                    </g>
                    <g>
                        <g class="cls-71">
                            <rect class="cls-29" x="138.01" y="339.91" width="113.11" height="19.11"/>
                        </g>
                        <g class="cls-68">
                            <rect class="cls-53" x="138.01" y="339.25" width="113.11" height="4.23"/>
                        </g>
                        <g class="cls-58">
                            <path class="cls-22" d="m250.67,361.01h1.99v-23.08h-2.2c-3.89,7.18-3.98,16.31.21,23.08Z"/>
                        </g>
                    </g>
                </g>
                <g>
                    <rect class="cls-12" x="204.44" y="265.09" width="161.99" height="37.5"/>
                    <path class="cls-30" d="m204.44,297.91h161.99v4.66s-.01.02-.02.02h-161.97v-4.68Z"/>
                    <path class="cls-15" d="m204.44,265.09h161.99v2.33s0,.02-.02.02h-161.98v-2.34Z"/>
                    <path class="cls-44" d="m214.34,289.06v-10.43c3.18,0,5.76-2.58,5.76-5.75h131.81c0,3.18,2.58,5.75,5.75,5.75v10.43c-3.18,0-5.75,2.58-5.75,5.75h-131.81c0-3.18-2.58-5.75-5.76-5.75Z"/>
                </g>
                <g>
                    <rect class="cls-51" x="130" y="146.49" width="179.51" height="33.66"/>
                    <rect class="cls-19" x="154.69" y="146.72" width="26.37" height="33.43"/>
                    <rect class="cls-19" x="260.15" y="146.72" width="26.37" height="33.43"/>
                    <path class="cls-30" d="m309.5,146.49v2.64s-.01.01-.02.01h-179.48v-2.65"/>
                </g>
                <g>
                    <rect class="cls-29" x="124.14" y="180.16" width="205.03" height="45.32"/>
                    <rect class="cls-62" x="124.14" y="184.89" width="205.03" height="11.82"/>
                    <rect class="cls-47" x="119.68" y="220.8" width="213.94" height="4.67"/>
                    <rect class="cls-47" x="119.68" y="180.16" width="213.94" height="4.67"/>
                    <rect class="cls-66" x="119.68" y="180.16" width="213.94" height="2.83"/>
                </g>
                <g>
                    <g>
                        <path class="cls-18" d="m269.27,39.04V13.43h-75.97c-7.07,0-12.8,5.73-12.8,12.8h0c0,7.07,5.73,12.8,12.8,12.8,0,0,75.97,0,75.97,0Z"/>
                        <path class="cls-15" d="m345.04,35.93v3.1h-151.74c-3.19,0-6.1-1.17-8.34-3.1h160.08Z"/>
                        <polygon class="cls-15" points="345.04 16.54 345.04 13.43 198.8 13.43 265.12 16.54 345.04 16.54"/>
                    </g>
                    <g class="cls-3">
                        <path class="cls-1" d="m345.04,39.04V13.43h-83.79c-7.07,0-12.8,5.73-12.8,12.8h0c0,7.07,5.73,12.8,12.8,12.8,0,0,83.79,0,83.79,0Z"/>
                    </g>
                    <g>
                        <g class="cls-39">
                            <rect class="cls-29" x="252.22" y="16.29" width="92.86" height="19.75"/>
                        </g>
                        <g class="cls-52">
                            <rect class="cls-62" x="252.22" y="16.29" width="92.86" height="3.64"/>
                        </g>
                        <g class="cls-77">
                            <path class="cls-63" d="m252.68,38.09h-2.05V14.24h2.27c4.02,7.42,4.11,16.85-.21,23.85Z"/>
                        </g>
                    </g>
                </g>
            </g>
            <g>
                <g>
                    <polygon class="cls-75" points="87.72 398.4 82.81 398.4 55.27 230.9 60.18 230.9 87.72 398.4"/>
                    <polygon class="cls-75" points="134.59 398.4 129.68 398.4 102.14 230.9 107.06 230.9 134.59 398.4"/>
                    <polygon class="cls-75" points="128.98 364.26 77.2 364.26 76.19 358.17 127.98 358.17 128.98 364.26"/>
                    <polygon class="cls-75" points="121.52 318.9 69.74 318.9 68.74 312.81 120.52 312.81 121.52 318.9"/>
                    <polygon class="cls-75" points="114.07 273.55 62.28 273.55 61.28 267.46 113.06 267.46 114.07 273.55"/>
                    <polygon class="cls-75" points="107.56 233.95 55.77 233.95 54.1 223.79 105.89 223.79 107.56 233.95"/>
                </g>
                <g>
                    <polygon class="cls-41" points="61.9 398.4 66.81 398.4 94.35 230.9 89.44 230.9 61.9 398.4"/>
                    <polygon class="cls-41" points="15.03 398.4 19.94 398.4 47.47 230.9 42.56 230.9 15.03 398.4"/>
                    <polygon class="cls-41" points="20.64 364.26 72.42 364.26 73.42 358.17 21.64 358.17 20.64 364.26"/>
                    <polygon class="cls-41" points="28.1 318.9 79.88 318.9 80.88 312.81 29.1 312.81 28.1 318.9"/>
                    <polygon class="cls-41" points="35.55 273.55 87.34 273.55 88.34 267.46 36.55 267.46 35.55 273.55"/>
                    <polygon class="cls-75" points="42.06 233.95 93.85 233.95 95.52 223.79 43.73 223.79 42.06 233.95"/>
                    <polygon class="cls-50" points="42.87 228.87 106.72 228.87 106.72 220.67 42.87 220.67 42.87 228.87"/>
                </g>
            </g>
            <g>
                <g>
                    <path class="cls-33" d="m118.48,369.85c1.51,3.05,2.16,7.54.78,10.35s-8.97,1.38-12.62-3.37c-3.65-4.75-.95-7.92.46-9.59,1.42-1.68,8.5-3.18,11.38,2.61Z"/>
                    <path class="cls-14" d="m126.13,348.29c-2.9-.92-5.66-2.16-8.38-3.47-1,1.71-1.93,3.35-2.73,4.83-5.09,9.4-13.01,27.17-17.75,32.41-2.85,3.15-8.32,9.83-11.02,10.93-2.71,1.11-7.88,1.89-6.87,2.72,2,1.64,9.81.5,12.52.13,2.71-.36,5.99.93,7.89-.53,1.89-1.47-.42-3.3,1.64-6.75,4.61-7.7,17.4-19.47,21.96-24.8,3.53-4.13,7.26-9.78,9.82-13.89-2.41-.33-4.78-.84-7.06-1.57Z"/>
                    <path class="cls-57" d="m178.43,304.18c11.06-4.74,20.84,1.33,20.84,8.54,0,14.36-19.79,26.63-27.38,26.73-17.32.22-28.23,6.49-30.01,7.5s-22.62,33.25-22.62,33.25c.27.08-3.94.2-7.68-2.19-3.7-2.36-6.26-3.83-8.97-6.43,0,0,20.63-36.68,22.66-40.9,2.03-4.22,12.13-8.87,19.71-12.19,11.19-4.92,26.28-11.23,33.45-14.31Z"/>
                </g>
                <path class="cls-13" d="m196.01,208.47c1.39.87-4.16,3.49-4.62,5.32-.47,1.83-1.63,5.48-3.16,11.02-1.77,6.39,10.7,9.31,2.87,19.68,0,0-9.26,5.85-12.64,5.67,0,0-6.78-7.31,1.76-17.39,2.53-2.99,0-16.08,4.61-21.43,3.49-4.06,7.91-4.93,11.19-2.87Z"/>
                <path class="cls-14" d="m182.75,247.26c-3.83,1.08-8.45,5.06-9.89,9.83s-4.16,13.06-6.18,18.66c0,0-2.58-1.23-5.4-3.03-3.8-2.42-6.59-4.31-6.59-4.31-.96,5.53-3.24,5.06-3.24,5.06,0,0,6.28,7.15,10.74,11.7,5.04,5.15,9.77,8.08,12.97.84,3.2-7.23,5.09-10.95,7.99-19.64,4.79-14.34-.39-19.12-.39-19.12Z"/>
                <path class="cls-13" d="m184.93,229.08c1.45,10.77-2.55,18.87-2.18,18.19,0,0,8.34-2.83,11.67-5.76,5.09-4.47,13.98,1.24,13.98,1.24,0,0,2.35-8.5.44-18.08s-2.68-12.34-7.64-14.09c-4.96-1.75-11.02,1.48-11.02,1.48,0,0-7.09,3.36-5.25,17.02Z"/>
                <path class="cls-14" d="m206.5,247.62s-4.42-.31-4.62-4.33c-.12-2.48,1.34-9.83,1.34-9.83l-11.81-1.61s.55,9.92-.95,11.55c-.9.98-4.77,2.32-4.77,2.32l-4.98,6.51,10.8,13.9,19.62-10.83-4.62-7.68Z"/>
                <path class="cls-9" d="m186.73,245.34c5.12-.19,10.23-1.25,15.16-2.92.15-2.99,1.33-8.95,1.33-8.95l-11.81-1.61s.55,9.92-.95,11.55c-.6.65-2.52,1.46-3.73,1.93Z"/>
                <path class="cls-14" d="m188.12,215.53c-2.85,3.48-2.51,5.42-2.35,10.39.14,4.27,0,6.34.65,8.22.65,1.9,2.86,5.56,5.87,7.17.6.32,2.1.52,3.29.25,3.99-.92,10.1-5.26,11.44-7.95.99-1.98,1.61-5.59,1.83-8.94.21-3.29.4-7.57.39-10.03-.05-8.7-15.91-5.48-21.12.89Z"/>
                <g>
                    <path class="cls-33" d="m140.59,369.85c1.41,3.05,4.65,8.7,3.37,11.51s-11.91,1.75-15.32-3.01c-3.41-4.75-1.32-11.21,0-12.88,1.32-1.68,9.27-1.41,11.95,4.38Z"/>
                    <path class="cls-14" d="m148.19,345.11c-2.42-1.03-4.84-2.05-7.18-3.19-1.54,2.74-3,5.43-4.16,7.72-4.75,9.4-13.85,27.17-18.29,32.41-2.67,3.15-7.16,8.08-9.68,9.18-2.53,1.11-8.29,2.26-7.04,4.46,1.26,2.2,9.16.5,11.69.13,2.53-.36,5.85,2.04,7.62.58,1.77-1.47-.65-4.42,1.28-7.86,4.3-7.7,17.96-19.47,22.22-24.8,3.87-4.85,8-11.79,10.31-15.87-2.27-.88-4.52-1.81-6.78-2.77Z"/>
                    <path class="cls-57" d="m207.7,300.53c-1,11.99,2.29,17.57,2.29,24.78,0,14.36-15.34,11.29-22.37,12.21-12.18,1.6-17.38,5.11-19.05,6.13-1.67,1.02-24.62,37.71-24.62,37.71,0,0-5.42-1.28-8.44-3.96-3.21-2.85-4.84-3.88-10.66-5.1,0,0,19.67-37.39,21.57-41.61,1.9-4.22,32.06-20.24,38.74-21.19,6.68-.94,22.53-8.97,22.53-8.97Z"/>
                    <path class="cls-23" d="m124.86,372.3c6.74-12.8,13.53-25.58,20.05-38.5,2.86-5.67,7.58-8.32,13.04-11.53,4.91-2.88,10.05-5.88,15.36-8.39"/>
                </g>
                <path class="cls-67" d="m218.95,266.72c-.88,4.87-2.2,10.03-2.85,13.71-1.52,8.48-3.6,6.01-4.73,14.75-.7,5.39,2.49,16.14,3.06,20.09-7.2,4.87-17.41-1.86-21.85-3.69-9.84-4.06-17.71-2.65-21.36-4.32,2.3-2.55,6.83-17.14,6.16-22.48-.69-5.54-5.75-12.44-4.34-15.05,1.41-2.62,9.72-22.46,9.72-22.46l2.94-1.54s-3.93,10.77,4.69,13.07c13.5,3.61,20.41-11.53,20.41-11.53,0,0,3.82,1.73,8.07,3.22,0,0,1.22,9.88.09,16.23Z"/>
                <path class="cls-13" d="m197.53,218.67c2.64.31,5.18.26,4.83,6.14-.55,9.38.19,11.9-3.76,21.31-2.4,5.73,6.53,8.27,11.67,4.7,1.19-.83,3.62-1.52,4.76-1.43,5.53.46,3.57-6.66-.23-12.89-3.69-6.05-2.81-11.08-2.81-13.95,0-6.56-2.32-11.6-7.16-14.43-5.2-3.04-11.64-2.22-15.14,1.21-.87.85-2.25,1.79-2.34,3.17-.15,2.56.36,5.03,10.16,6.17Z"/>
                <path class="cls-14" d="m150.78,273.89c-3.29-3.2-3.28-4.39-3.94-7.08s.74-3.05.74-3.05c0,0,3.13,1.71,5.42,5.07s1.59,5.07,1.59,5.07h-3.81Z"/>
                <g>
                    <path class="cls-36" d="m157.28,253.5s-.12-1.8,1.8-3.74,22.71-5.76,22.71-5.76l1.27,5.76-21.1,6.4-4.69-2.66Z"/>
                    <path class="cls-64" d="m183.87,247.65l6.99,28.61s-17.77,4.3-22.53,6.51l-8.3-29.72,23.84-5.4Z"/>
                    <path class="cls-36" d="m157.49,257.66l-.2-4.15s-.38-3.19-2.27-4.52c-1.88-1.34-9.13-3.6-9.13-3.6l-1.81,3.36,13.41,8.92Z"/>
                    <path class="cls-64" d="m162.66,282.41s3.15,2.2,5.66.36l-8.3-29.72s-3.09,1.23-5.79-.37l8.43,29.73Z"/>
                    <polygon class="cls-64" points="143.33 247.68 154.24 252.68 162.66 282.41 152.06 277.08 143.33 247.68"/>
                </g>
                <path class="cls-14" d="m146.87,259.87c1.31-.06,2.93.88,3.5,1.98.57,1.1.02,1.2-.55,1.21-.57,0-1.13.1-1.13.1,0,0,1.15,1.1,2.36,1.48s2,1.05,1.58,1.92c-.42.88-.64.72-1.45.46,0,0,1.19.79.8,1.86-.39,1.08-1.78.22-1.78.22,0,0,1.34.56,1.14,1.6-.2,1.04-1.11.2-2,.06-.89-.14-2.38-1.58-2.43-2.38s-.09-1.59-.09-1.59c0,0-.32-.75-.49-1.72l-.17-.97.26-1.25s-1.08-2.92.44-2.99Z"/>
                <path class="cls-14" d="m218.86,250.48c-5.1-1.43-6.41,5.68-6.93,12.96-.47,6.62-2.34,21.34-2.34,21.34,0,0-11.21-7.38-16.39-12.02-.5-.44-.94-.83-1.26-1.17-1.45-1.59-3.2-4.97-4.08-9.08-.04-.2.17-.91-.75-1.52-2.12-1.42-2.45-3-3.59-4.26-1.23-1.36-2.18-2.62-2.68-2.06-.49.56.12,1.4.63,2.2.52.8,1.99,3.18,2.42,3.96.43.77.3,1.01.04,1.05-.66.12-1.42-.4-2.58-.79-1.16-.39-4.48-2.29-5.01-1.63-.53.66.12,1.26,2.19,2.31,1.18.6,3.25,2.52,3.25,2.52,0,0-.63-.46-2.08-1.16-1.45-.7-3.01-1.64-3.38-.78-.26.6,1.52,1.51,1.52,1.51,0,0-.64.11-.28.88.32.7,1.23.66,2.25,1.71.72.74,1.93,3.46,3.17,3.89,1.25.42,2.15,3.86,4.21,4.56,1.52.52,11.84,12.43,12.46,13.02,5.89,5.59,12.39,10.5,15.8,6.53,3.41-3.97,6.66-24.7,6.67-33.82.01-6.1-.84-9.45-3.29-10.14Z"/>
                <path class="cls-33" d="m101.1,393.21c-1.42,1.21-5.95,1.43-9.28,1.69s-4.93-2.96-4.93-2.96c-5.97,2.08-9.22,2.37-10.99,3.36-2.42,1.35-.51,2.26,2.82,2.66,4.25.51,8.25.36,11.55-.04,1.44-.18,7.12,0,7.84.03,3.63.13,4.08-1.39,3.39-3.5l-.4-1.23Z"/>
                <path class="cls-33" d="m121.97,392.5c-1.42,1.21-4.26,1.86-7.43,1.59-4.16-.35-5.65-2.86-5.65-2.86-5.97,2.08-7.78,2.18-9.56,3.17-2.42,1.35-.98,2.65,2.34,3.05,4.25.51,6.16.16,9.46-.25,1.44-.18,7.12,0,7.84.03,3.63.13,4.08-1.39,3.39-3.5l-.4-1.23Z"/>
            </g>
            <g>
                <path class="cls-17" d="m345.28,344.22c-1.66.23-3.79,1.49-4.5,3.71s2.52,4.33,3.47,7.16c.96,2.83,3.48,6.91,6.91,7.92,3.43,1.01,5.67-1.02,4.91-4.66s-6.59-10.9-6.59-10.9l-4.21-3.23Z"/>
                <path class="cls-22" d="m333.23,239.05s10.22,11.5,18.35,21.17l-4.39,37.89s-.65-16.46-12.74-25c-12.1-8.54-29.43-32.6-29.43-32.6l28.21-1.45Z"/>
                <path class="cls-14" d="m331.35,205.87s9.52,5.29,11.44,5.87c1.92.58,4.19,1.32,6.74,0s8.18-7.21,9.26-10.91l-5.39-2.88-8.43,7.26-9.93-4.89-3.69,5.55Z"/>
                <path class="cls-7" d="m315.22,187.45l10.88-4.34s3.23,1.69,5.97,6.8c2.73,5.11,7.64,10.47,7.64,10.47l-8.96,10.45s-6.25-6.37-9.29-11.78c-3.03-5.41-6.24-11.6-6.24-11.6Z"/>
                <path class="cls-14" d="m305.74,161.98s-.7,5.39-1.27,8.14c-.57,2.74-1.53,3.69-2.2,4.35s-8.21,5.77-8.21,5.77c0,0,16.45,30.66,21.2,14.69,1.5-5.04,7.63-13.37,7.63-13.37,0,0-5.73-4.49-6.59-6.76s-1.33-8.85-1.33-8.85l-9.22-3.97Z"/>
                <path class="cls-15" d="m312.26,177.29c.8.58,1.6,1.15,2.41,1.71,1.42.97,2.86,1.9,4.32,2.8.87.54,1.77,1.03,2.66,1.54.74-1.08,1.25-1.77,1.25-1.77,0,0-5.73-4.49-6.59-6.76s-1.33-8.85-1.33-8.85l-9.23-3.97s-.7,5.39-1.27,8.14c0,0,0,.01,0,.02,2.49,2.47,5.08,4.85,7.79,7.15Z"/>
                <g>
                    <path class="cls-22" d="m342.68,253c3.34-.72,9.94,6.74,13.35,15.84,2.44,6.51,1.4,15.53.34,28.02-.72,8.47-3.24,46.41-3.24,46.41h-9.86s-1.83-21.64-2.53-37.46c-1.03-23.23-1.31-27-1.31-27l-22.52-25.8s20.63,1.12,25.78,0Z"/>
                    <path class="cls-81" d="m312.78,243.44c8.25-.33,21.23-3.62,20.45-4.39-1.72-1.72-3.84-20.73-3.89-25.65-.16-13.86-3.24-30.29-3.24-30.29l-7.93-5.78s-.36,5.52-6.53,6.02c-13.5,1.09-12.98-6.26-12.98-6.26,0,0-8.34,3.45-11.73,6.24-4.57,3.76-4.88,8.42-2.2,26.62,1.11,7.51.94,16.63,1.78,23.53.68,5.58-.44,19.48,3.67,19.14,6.87-2.7,14.97-9.44,22.6-9.18Z"/>
                    <path class="cls-22" d="m352.91,343.16l-9.04-.23s.02.96-.26,1.53c-.46.94-1.22,1.95-.36,4.14,1.22,3.12,4.87,10.9,7.79,12.54,1.57.88,3.49.63,4.65-.82,1.04-1.29-.18-4.47-.9-7.75-1-4.61-1.9-9.41-1.9-9.41Z"/>
                </g>
                <g>
                    <path class="cls-36" d="m353.52,197.92s.23-1.76-1.91-3.72c-2.13-1.97-20.75-3.76-20.75-3.76l-1.75,5.57,18.85,4.32,5.56-2.41Z"/>
                    <path class="cls-38" d="m328.27,193.91l-6.35,26.89s17.97,2.27,23.39,4.61l7.12-27.57-24.17-3.93Z"/>
                    <path class="cls-36" d="m353.09,201.96l.43-4.05s-1.31-2.93-.09-4.94c1.22-2.01,7.47-7.25,7.47-7.25l3.66,2.1-11.47,14.14Z"/>
                    <path class="cls-38" d="m349.22,224.99s-1.97,1.41-3.9.42l7.12-27.57s3.04.43,4.65-.6l-7.87,27.75Z"/>
                    <polygon class="cls-38" points="364.75 186.57 357.09 197.23 349.22 224.99 355.66 218.68 364.75 186.57"/>
                    <polygon class="cls-8" points="345.64 209.24 347.4 201.25 331.64 198.91 329.9 206.98 345.64 209.24"/>
                </g>
                <path class="cls-14" d="m334.36,204.07c-.2,0-.6.2-1.1.53.04-.09.07-.19.11-.31.29-1.04-1.96.36-3.42,1.71-1.46,1.35-4.83,3.26-4.83,3.26-1.1.01.87-4.8.37-5.51-.5-.71-.92.46-2.21,4.38-.6,1.83-2.53,3.75-4.53,5.12-.7.48-2.62.97-4.95,1.51-.31.07-13.76,2.66-15.53,3.34,0,0-1.52-8.67-3.23-14.07-4.76.54-7.53,2.32-12.31,2.79.38,7.74,2.7,13.8,4.19,18.93.85,2.91,3.23,5.28,7.14,4.17,2.15-.61,23.63-10.08,25.12-10.78,2.87-1.34,5.75-1.96,6.64-2.58,1.45-1,4.46-3.33,5.52-4.17.98-.78.5-1.67.43-1.8.05-.01.31-.4,1.04-1.36.57-.75.43-2.08.43-2.08.76-.84.8-1.26,1.11-1.77.64-1.07.31-1.31,0-1.31Z"/>
                <path class="cls-14" d="m361.38,198.91c-.23-.03-.16.83-.35,1-1.37,1.29-3.67,2.3-2.95,2.66.3.15.72.42.72.42,0,0-.34.74-.09.98s.3.47.27.64-.53,1.29-.36,1.44c.17.15-.08.89.05,1.13.14.23.4.1,1.08-.29.68-.39,1.44-1.7,1.87-2.75.9-2.2.15-5.19-.26-5.24Z"/>
                <path class="cls-7" d="m297.98,212.48s-4.25-21.24-5.26-23.42c-4.23-9.15-8.67-5.73-11.98,5.67-1.04,3.59-1.63,16.29,1.11,23.07,3.97,1.43,10.87-2.77,16.13-5.33Z"/>
                <path class="cls-22" d="m333.11,259.01c-2.66-5.52-8.26-7.9-15.18-15.72,0,0-4.84.15-12.91,1.08-6.74.77-15.15,3.74-15.15,3.74-.86,4.15-.52,9.49,4.57,15.51,3.34,3.94,7.81,1.8,16.77,5.37,1.83,1.53,2.99,2.75,2.99,2.75,0,0,.16,6.09-3.27,21.21-3.44,15.12-5.13,31.82-5.13,31.82l9.21-1.56s8.36-16.28,11.6-23.09c8.35-17.54,8.98-24.42,9.86-29.4.8-4.52-.94-8.49-3.34-11.7Z"/>
                <path class="cls-24" d="m326.6,300.11c8.35-17.54,8.98-24.42,9.86-29.4.79-4.52-1.47-11.81-12.89-21.8"/>
                <path class="cls-14" d="m327.31,156.67c-.12,2.97-1.48,9.59-2.51,12.24-1.42,3.67-3.95,6.43-6.87,7.38s-7.25-2.65-9.11-5.45c-1.86-2.8-1.42-6.38-1.41-9.75.01-3.38,1.39-6.76,1.39-6.76,0,0-.21-5.62,2.94-7.22,12.1-6.13,15.7,6.6,15.57,9.57Z"/>
                <path class="cls-35" d="m329.78,153.98c-3.49.13-8.36,2-12.45.58-2.7-.94-5.36-2.65-5.36-2.65-.58,2.11.67,2.45.43,4.29-.23,1.84-2.86,3.01-2.86,3.01,0,0-.75,2.75-1.62,3.44s-2.96,6.52-2.96,6.52c0,0-1.87-5.61-1.98-6.51-.11-.89-2.63-2.86-3.64-5.82s.82-14.53,8.02-13.85c0,0,7.77-5.28,16.97,2.18,3.53,2.87,5.45,8.79,5.45,8.79Z"/>
                <path class="cls-14" d="m309.41,159.9c.16-1.36.89-4.75-2.15-5.29-3.04-.54-2.85,4.18-1.93,5.36.92,1.18,2,3.62,2,3.62,0,0,1.84-1.65,2.08-3.68Z"/>
                <path class="cls-22" d="m315.46,322.46c-1.46-1.02-4.57-1.53-6.37-1.1-1.8.43-3.39-.24-3.39-.24,0,0-1.99,3.47-1.66,4.67.66,2.4,4.36,8.25,8.32,11.46,3.25,2.63,6.79,3.1,8.08,1.6,1.72-2-4.98-16.4-4.98-16.4Z"/>
                <path class="cls-17" d="m318.74,340.47c-2.18.33-3.75.15-6.37-1.22-3.02-1.58-8.74-9.18-9.35-11.27-.22-.76.77-2.29,1-3.04.36-1.17,4.54,8.97,8.73,11.97,1.59,1.13,6.05,2.89,7.7,1.96,0,0-.51,1.43-1.71,1.62Z"/>
            </g>
            <g>
                <g>
                    <path class="cls-14" d="m89.02,168.36c-2.35.02-3.25-2.4-5.66-2.58-.83,5.02-3.13,11.32-3.96,13.54-1.59,4.25-5.43,5.09-7.73,7.06-.77.66-1.73,1.43-2.6,2.24,3.37-.07,8.75.27,12.04-.52,3.1-.74,4.15-3.02,7.26-3.76-.22-1-.57-2.25-.82-4.09-.43-3.2.29-7.41,1.47-11.89Z"/>
                    <path class="cls-79" d="m88.33,183.1c-1.32,1.58-5.2,3.74-8.68,4.02-4.58.38-6.01-2.3-6.01-2.3-3.31,2.75-7.81,3.66-9.51,5.38-2.15,2.16-.58,3.05,3.1,2.88,4.7-.22,6.72-.94,10.22-1.99,1.53-.45,6.85-1.26,7.64-1.36,3.97-.52,5.05-2.28,3.92-4.45-.66-1.26-.67-2.19-.67-2.19Z"/>
                </g>
                <path class="cls-34" d="m161.66,85.31l-22.77-4.37s-1.92,9.23-4.51,11.29c-1.87,1.49-15.63,6.46-20.78,7.95-4.54,1.31-14.91,4.88-17.45,7.24-1.88,1.75-4.33,4.68-6.1,12.94-1.95,9.1-8.94,53.97-8.94,53.97,0,0,1.74,3.25,6.36,2.47,0,0,5.09-14.19,14.06-32.58,3.36-6.89,6.64-19.74,6.64-19.74,0,0,13.51-2.04,26.8-2.77,12.04-.65,21.59.48,25.4-1.9,12.56-7.83,1.29-27.23,1.29-34.5Z"/>
                <path class="cls-14" d="m115.69,188.33c-3.48-7.81-1.21-24.73-1.5-33.93l-10.82.12c1.77,11.52,4.66,29.34,4.23,35.21-.34,4.53-.43,9.98-1.13,12.92-.69,2.96-2.2,7.72.57,8.06,2.77.34,6.48-7.74,7.83-10.21,1.35-2.47,5.66-3.81,5.54-6.32-.13-2.53-2.95-1.88-4.72-5.85Z"/>
                <path class="cls-79" d="m116.86,190.23c.13,2.05-1.18,6.29-3.5,8.91-3.05,3.43-7.06,2.32-7.06,2.32-.5,4.27-2,8.2-2.05,10.62-.06,3.05,1.68,2.61,4.23-.05,3.25-3.4,4.21-5.32,6.02-8.49.79-1.38,4.09-5.64,4.59-6.26,2.51-3.12,2.08-5.13-.23-5.92-1.35-.46-2-1.12-2-1.12Z"/>
                <path class="cls-14" d="m132.12,48.76c-2.06,8.91-3.55,15.48-3.55,15.48-1.94-.74-16.74-3.6-17.08-3.67-.2-.05-.4-.09-.6-.14-.83,2.09-1.62,4.2-2.36,6.32,5.7,2.58,17.49,7.85,19.35,8.38,4.3,1.22,7.96-1.47,8.88-4.67,1.64-5.65,3.1-13.56,4.74-20.27l-9.39-1.43Z"/>
                <path class="cls-34" d="m161.66,91.32l-14.98-9.59-12.3,13.24s-27.95,9.37-30.49,11.74c-2.72,2.53-6.03,4.61-5.19,19.15.74,12.77,7.43,54.42,7.43,54.42,1.5,1.43,8.11,3.1,8.22,1.04,1.11-21.02,2.2-29.12,2.45-43.12.17-9.38.34-15.05.34-15.05,0,0,38.16-.77,43.68-8.25,6.1-8.27.84-16.3.84-23.58Z"/>
                <path class="cls-26" d="m134.38,94.97s-27.94,9.37-30.49,11.74c-2.72,2.53-6.03,4.61-5.19,19.15.36,6.2,2.12,19.2,3.84,30.95"/>
                <path class="cls-35" d="m145.34,39.56c-.98,3.32-9.68-.8-14.79-6.99-5.11-6.19-8.81-16.75-3.71-24.21,5.1-7.46,11.92,6.99,14.24,14.67,2.32,7.68,4.26,16.53,4.26,16.53Z"/>
                <path class="cls-38" d="m136.27,58.51c.93.19,1.87.34,2.79.48.02-.2.05-.41.07-.6.68-6.59,6.28-25.13.55-21.87-3.8,2.16-6.79,5.05-9.19,16.65-.29,1.38-.45,2.7-.56,3.96,1.85.87,5.1,1.14,6.32,1.39Z"/>
                <g>
                    <path class="cls-14" d="m142.02,36.32c.65-1.46,2.01-1.71.15-4.82l8.41-3.36s1.82,3.61,4.48,6.25c2.65,2.64-3.43,23.44-8.74,25.13-5.3,1.69-8.22-4.85-8.22-4.85,0,0,.23-4.99.17-6.36-.17-3.81,3.74-11.98,3.74-11.98Z"/>
                    <path class="cls-38" d="m156.57,34.62s-3.86,1.6-7.21,5.37c-3.35,3.77-8.01,8.43-9.28,7.94s1.26-10.52,2.55-12.63l-2.94,1.21s-2.66,9.08-4.34,12.03c-1.69,2.95-4.26,7.03-4,10.88.26,3.85,2.96,9.25,2.7,12.57-.26,3.32-.87,17.93-.87,17.93,0,0,5.09,1.69,13.73,1.57,9.38-.13,12.65-.68,18.51-4.65-1.62-4.38-2.85-4.36-3.19-15.64-.18-6.04.9-11.61,2.19-18.24,1.29-6.63,2.91-10.35.47-13.67-2.45-3.32-8.32-4.68-8.32-4.68Z"/>
                    <path class="cls-14" d="m149.6,24.14c-2.85-4.62-2.78-7.27-2.75-7.62,0-.02,0-.04,0-.04l-1.41-9.48s-3.22-4.3-8.74-2.32-7.76,3.73-8.53,6.11c-.65,2-.24,4.5.06,5.62s1.17,2.02.85,3.23c-.32,1.21-2.02,3.66-2.06,4.31-.03.65,1.99,1.25,2.3,1.6s2.11,3.38,2.99,4.93c.88,1.55,4.07-.02,6.73-.37,2.35-.31,5.87,4.3,6.79,7.01l11.88-1.76s-5.06-6.22-8.12-11.2Z"/>
                </g>
                <path class="cls-35" d="m145.84,37.1c-.05-7.98,1.12-15.72-3.46-18.88-1.24-.85-5.46-1.44-7.02-1.75-8.52-1.67-8.52-8.12-8.52-8.12,0,0,5.12-6.41,12.35-8.06,7.23-1.65,14.27,3.61,18.08,14.59,2.89,8.33,12.38,14.21,15.54,19.74,6.39,11.18-2.56,25.17-10.17,23.53-8.75-1.88.22-11.92-2.42-19.12-.45-1.22-6.36,1.79-9.46,2.82-3.25,1.07-4.9-2.95-4.92-4.75Z"/>
                <path class="cls-36" d="m95.63,51.8s-.95-7.6,2.51-10.71l3.96,1.3,5.76,19.87-5.65,3.89-6.57-14.34Z"/>
                <path class="cls-36" d="m99.36,54.15s-3.61-2.72-1.02-6c2.04-2.58,21.41-4.2,21.41-4.2l11.57,31.07-4.95,2.39-10.37-.58-16.65-22.68Z"/>
                <path class="cls-47" d="m117.23,48.76l10.33,29.6s-9.09,1.88-17.72,3.15l-10.2-29.54,17.58-3.21Z"/>
                <path class="cls-47" d="m105.7,81.12s1.09,1.05,4.15.4l-10.2-29.54s-2.13.65-4.02-.18l10.07,29.32Z"/>
                <polygon class="cls-8" points="108.77 77.41 101.76 56.04 115.53 53.16 122.32 74.93 108.77 77.41"/>
                <path class="cls-14" d="m112.77,60.1c.22,0,.66.21,1.21.58-.04-.1-.08-.21-.12-.34-.32-1.14,2.16.39,3.76,1.88s4.55,3.14,4.55,3.14c1.21.01-1.25-2.77-.71-3.55.55-.78,2.32.86,3.49,2.75,1.11,1.8,2.78,4.13,4.98,5.63.78.53,2.88,1.07,5.45,1.66.34.07,15.14,2.93,17.08,3.67,0,0,2.37-11.07,4.43-19.98l9.39,1.43c-1.65,6.71-3.98,19.12-5.62,24.77-.93,3.21-4.59,5.89-8.88,4.67-2.37-.67-20.68-8.97-22.33-9.74-3.16-1.48-6.32-2.16-7.3-2.84-1.6-1.1-4.91-3.67-6.07-4.59-1.08-.86-.55-1.84-.47-1.98-.05-.01-.34-.44-1.15-1.5-.63-.83-.48-2.29-.48-2.29-.83-.92-.88-1.38-1.22-1.95-.71-1.18-.34-1.44,0-1.44Z"/>
                <path class="cls-47" d="m96.85,53.35s-1.46-8.67,2.02-12.09l-.73-.18s-3.71,2.85-2.51,10.71l1.22,1.55Z"/>
                <path class="cls-38" d="m167.07,60.34c.63-5.89.56-11.21.27-14.13-.83-8.61-11.38-9.24-13.2-3.1-1.02,3.44-.68,9.38.33,18.17,4.07-.93,8.33-1.16,12.59-.94Z"/>
            </g>
        </g>
    </g>
</svg>