<?xml version="1.0" encoding="UTF-8"?>
<svg id="Livello_2" data-name="Livello 2" xmlns="http://www.w3.org/2000/svg" viewBox="0 0 494.33 273.79">
  <defs>
    <style>
      .cls-1, .cls-2 {
        fill: #fff;
      }

      .cls-3, .cls-4 {
        stroke-linecap: round;
        stroke-linejoin: round;
      }

      .cls-3, .cls-4, .cls-5, .cls-6 {
        stroke-width: .81px;
      }

      .cls-3, .cls-5, .cls-7, .cls-8, .cls-2 {
        stroke: #000;
      }

      .cls-3, .cls-5, .cls-9 {
        fill-rule: evenodd;
      }

      .cls-4, .cls-8, .cls-6 {
        fill: none;
      }

      .cls-4, .cls-6 {
        stroke: #fff;
      }

      .cls-5, .cls-7, .cls-8, .cls-2, .cls-6 {
        stroke-miterlimit: 6.45;
      }

      .cls-7 {
        fill: #9c9650;
        stroke-width: 1.76px;
      }

      .cls-8 {
        stroke-width: 2.63px;
      }

      .cls-2 {
        stroke-width: .89px;
      }

      .cls-10 {
        fill: #f1c350;
      }
    </style>
  </defs>
  <g id="Livello_1-2" data-name="Livello 1">
    <g id="logo-univaq">
      <g id="Path">
        <path class="cls-10" d="m113.1,271.3c14.62-23.68,37.41-24.29,69.79-56.92,45.83-46.19,44.71-112.8,38.8-175.67-30.96,5.81-88.13-23.98-108.58-37.16C92.64,14.74,35.48,44.92,4.52,39.14-1.4,102-3.96,168.48,41.87,214.66c32.38,32.63,56.61,32.96,71.23,56.64"/>
      </g>
      <g id="Path1">
        <path class="cls-8" d="m113.1,271.3c-14.62-23.68-38.85-24.01-71.23-56.64C-3.96,168.48-1.4,102,4.52,39.14,35.48,44.92,92.64,14.74,113.1,1.56c20.46,13.17,77.62,42.97,108.58,37.16,5.91,62.86,7.03,129.48-38.8,175.67-32.38,32.63-55.08,33.1-69.7,56.78l-.08.13Z"/>
      </g>
      <g id="Path2">
        <path class="cls-2" d="m66.33,187.72c-27.39-4.89-53.45-22.15-57.26-80.6l7.14,9.95c1.56-3.97,3.08-7.45,4.61-11.42,4.83,60.04,34.9,70.97,60.97,71.91l4.71.06c10.52-.08,20.36-1.44,26.78-1.3,6.3-.14,15.75,1.22,26.26,1.3l4.71-.06c26.03-.88,56.37-11.7,61.22-71.91,1.53,3.97,3.06,7.45,4.59,11.42l7.14-9.95c-3.79,58.83-30.16,75.91-57.64,80.69l-21.86,1.93c-8.31.4-13.23-1.66-24.41-1.66-11.82.03-16.67,1.9-25.46,1.61l-21.5-1.96Z"/>
      </g>
      <g id="Shape">
        <path class="cls-9" d="m20.03,130.6c.14.03.28,0,.42-.03.97-.19,1.17-.92.94-2.03l-.25-1.25-1.11.22v-.87l1.58-.3.36,1.83c.08.33.11.64.11.89v.42c-.05,1.36-.86,1.78-1.5,1.92-.19.03-.39.03-.56.03v-.83Zm-1.47-2.78l.22,1.08c.25,1.25.75,1.64,1.25,1.7v.83c-.61-.08-1.17-.5-1.5-1.14l-2.94,2.14-.2-.92,2.86-2.03-.3-1.55-3.14.64-.17-.83,5.39-1.09v.87l-1.47.3Z"/>
      </g>
      <g id="Path3">
        <path class="cls-9" d="m23.25,136.47l-.86-3.33-2.34.58.61,2.39-.64.17-.61-2.39-2.67.7.92,3.53-.64.17-1.11-4.36,6.89-1.75,1.05,4.17-.61.14Z"/>
      </g>
      <g id="Path4">
        <path class="cls-9" d="m17.75,140.66l-.25-.81,6.75-2.19.39,1.25-4.34,4.75,5.34-1.72.25.78-6.76,2.23-.25-.8,5-5.48-6.14,2Z"/>
      </g>
      <g id="Shape1">
        <path class="cls-9" d="m24.08,149.89c.25-.08.53-.17.81-.28,1.97-.83,2.47-2.06,2.06-3.09-.39-.86-1.33-1.36-2.86-.95v-.83c1.64-.33,2.89.3,3.42,1.56.64,1.5-.14,3.17-2.31,4.09-.39.14-.75.28-1.11.33v-.83Zm-.78-4.03c-2,.84-2.5,2.06-2.05,3.09.36.86,1.31,1.37,2.84.94v.83c-1.61.31-2.89-.3-3.39-1.56-.67-1.53.14-3.17,2.28-4.08.39-.17.75-.28,1.11-.33v.83c-.25.06-.5.17-.78.28"/>
      </g>
      <g id="Path5">
        <path class="cls-9" d="m23.75,155.28l-.36-.67,5.22-5.31.42.75-4.28,4.28,6-1.03.39.72-7.39,1.25Z"/>
      </g>
      <g id="Shape2">
        <path class="cls-9" d="m32.09,156.39l-1.84.56v-.75l1.92-.56.64,1-2.55,3.14v-1.23l1.84-2.16Zm-1.84.56l-1.86.58,1.17,1.83.69-.81v1.23l-2.17,2.64-.44-.73,1.5-1.83-1.39-2.17-2.28.67-.47-.73,5.25-1.45v.75Z"/>
      </g>
      <g id="Shape3">
        <path class="cls-9" d="m32.92,162c.64.78,1.45,1.81,2.39,1.03.97-.8.17-1.72-.48-2.53l-.53-.61-1.39,1.14v-1.08l1.36-1.11,1.39,1.7c.56.72.78,1.31.81,1.8v.08c-.03.56-.31.98-.61,1.25-.61.47-1.36.47-2.03-.05.39.88.28,1.7-.42,2.28-.17.11-.3.23-.5.31v-1c.53-.47.73-1.08,0-2.17v-1.03Zm0,0v1.03c-.08-.11-.2-.25-.31-.39l-.67-.83-2.17,1.75.64.77c1.2,1.48,1.83,1.42,2.42.92.03,0,.06-.03.08-.06v1c-.67.28-1.61.25-2.69-1.11l-1.45-1.78,4.14-3.36v1.08l-.47.39.47.58Z"/>
      </g>
      <g id="Path6">
        <path class="cls-9" d="m33.59,168.9l-.58-.58,5.14-4.92.58.58-5.14,4.92Z"/>
      </g>
      <g id="Path7">
        <path class="cls-9" d="m42.59,168.42l-1.58-1.42-4.31,4.84-.64-.55,4.31-4.84-1.58-1.39.42-.5,3.81,3.39-.42.47Z"/>
      </g>
      <g id="Path8">
        <path class="cls-9" d="m44.7,175.09c-1.11,1.56-2.5,1.14-3.44.5-.92-.64-1.78-1.81-.7-3.36l2.78-4.03.7.47-2.5,3.58c-.61.92-1.17,1.86.14,2.75,1.31.92,2,.08,2.64-.84l2.47-3.58.69.47-2.78,4.02Z"/>
      </g>
      <g id="Shape4">
        <path class="cls-9" d="m49.18,175.62c.92.28,1.34-.08,1.58-.55.44-.86.03-1.47-.97-2l-.61-.33v-.72l.69.36c1.42.75,1.84,1.53,1.86,2.2v.09c-.03.3-.11.61-.25.83-.39.75-1.25,1.09-2.17.89l-.14,2.44v-3.2Zm-1.75-.83l.98.53c.31.14.55.25.78.3v3.2l-.05,1.2-.83-.42.22-3.5-1.39-.75-1.5,2.83-.72-.39,3.31-6.28.97.5v.72l-.53-.28-1.22,2.34Z"/>
      </g>
      <g id="Path9">
        <path class="cls-9" d="m59.15,181.4c-.61,1.81-2.08,1.81-3.14,1.48-1.06-.36-2.25-1.25-1.64-3.06l1.53-4.64.78.28-1.36,4.14c-.33,1.05-.59,2.08.92,2.58,1.5.5,1.95-.5,2.28-1.53l1.36-4.14.81.25-1.53,4.64Z"/>
      </g>
      <g id="Path10">
        <path class="cls-9" d="m66.08,178.68l-2.06-.47-1.47,6.31-.81-.2,1.45-6.28-2.06-.51.14-.61,4.95,1.14-.14.61Z"/>
      </g>
      <g id="Shape5">
        <path class="cls-9" d="m93.65,183.57l1.08-.06-1.08-3.08v-1.09h.39l2.61,6.98-.86.05-.83-2.22-1.3.05v-.64Zm-.2-3.73h-.03l-.86,3.78,1.09-.05v.64l-1.25.06-.59,2.31-.86.03,1.89-7.2.81-.06v1.09l-.2-.59Z"/>
      </g>
      <g id="Shape6">
        <path class="cls-9" d="m101.26,185.57h.2c1.08-.08,1.97-1.06,1.83-3.22-.14-2.03-1.03-2.92-2.03-2.94v-.62c1.53.03,2.73,1.28,2.86,3.51.09,1.39-.28,3.39-2.25,3.81.2.86.86.86,1.36.83l.56-.03.05.64-.56.03c-.89.06-1.64,0-2.03-.83v-1.17Zm-2.03-2.97c.11,2.03,1,2.92,2.03,2.97v1.17c-.08-.17-.14-.36-.19-.58-1.97-.17-2.58-2.12-2.67-3.51v-.72c.09-1.89,1.17-3.06,2.61-3.14h.25v.62h-.19c-1.11.05-1.97,1.05-1.83,3.2"/>
      </g>
      <g id="Path11">
        <path class="cls-9" d="m111.85,183.27c.05,1.91-1.31,2.44-2.42,2.47-1.14.02-2.53-.39-2.61-2.28l-.17-4.89.84-.03.16,4.36c.03,1.11.17,2.17,1.75,2.11,1.59-.05,1.64-1.14,1.59-2.22l-.14-4.36.84-.03.17,4.87Z"/>
      </g>
      <g id="Path12">
        <path class="cls-9" d="m114.63,185.54l.08-7.11h.83s-.08,7.11-.08,7.11h-.83Z"/>
      </g>
      <g id="Path13">
        <path class="cls-9" d="m119.13,185.02l3.36.2-.03.64-4.2-.22.36-7.11.84.05-.33,6.45Z"/>
      </g>
      <g id="Shape7">
        <path class="cls-9" d="m127.52,179.51l-.2.55v-1.03l.83.05,1.83,7.23-.86-.06-.58-2.31-1.23-.08v-.64l1.09.09-.89-3.81Zm-.2.55l-1.08,3.11,1.08.05v.64l-1.33-.09-.84,2.22-.83-.06,2.67-6.95.33.03v1.03Z"/>
      </g>
      <g id="Path14">
        <path class="cls-9" d="m136.72,180.15l-3.48-.14-.08,2.42,2.48.11-.03.64-2.48-.11-.11,2.78,3.7.14-.03.64-4.53-.2.28-7.09,4.31.17-.03.64Z"/>
      </g>
      <g id="Path15">
        <path class="cls-9" d="m167.74,181.55c.44,1.64-.5,2.28-1.33,2.5-.72.2-1.5,0-1.89-.58l.64-.53c.17.36.61.55,1.06.44.64-.17.94-.8.72-1.61l-1.36-5,.81-.22,1.36,5Z"/>
      </g>
      <g id="Path16">
        <path class="cls-9" d="m174.65,178.76c.67,1.78-.47,2.73-1.5,3.11-1.06.39-2.53.48-3.2-1.31l-1.75-4.56.78-.3,1.56,4.06c.39,1.03.86,2.03,2.37,1.44,1.47-.55,1.16-1.61.78-2.64l-1.56-4.05.78-.31,1.75,4.56Z"/>
      </g>
      <g id="Path17">
        <path class="cls-9" d="m179.96,178.6l-.67.36-5.36-5.22.75-.39,4.31,4.25h.03l-1.06-6,.7-.39,1.31,7.39Z"/>
      </g>
      <g id="Path18">
        <path class="cls-9" d="m183.49,168.62l-2.84,2,1.42,1.98,2-1.44.39.53-2.03,1.44,1.62,2.25,3-2.14.39.5-3.69,2.64-4.14-5.78,3.5-2.5.39.52Z"/>
      </g>
      <g id="Path19">
        <path class="cls-9" d="m190.02,171.54l-.58.58-4.92-5.14.94-.92,6.17,1.86-3.86-4.06.58-.58,4.92,5.14-.59.58-7.11-2.14,4.45,4.67Z"/>
      </g>
      <g id="Path20">
        <path class="cls-9" d="m192.89,158.75l-1.33,1.67,5.05,4.03-.5.67-5.09-4.03-1.31,1.66-.5-.41,3.17-3.97.5.38Z"/>
      </g>
      <g id="Path21">
        <path class="cls-9" d="m199.92,155.56c1.64,1,1.31,2.41.73,3.39-.61.95-1.72,1.9-3.36.89l-4.14-2.55.44-.72,3.7,2.28c.94.59,1.92,1.09,2.75-.28.84-1.33-.05-2-.97-2.56l-3.73-2.3.44-.69,4.14,2.56Z"/>
      </g>
      <g id="Path22">
        <path class="cls-9" d="m200.14,148.47c-.83-.11-1.58-.06-2.03.86-.31.64-.11,1.47.5,1.77,1.61.75,2.64-3.03,4.89-1.94,1.11.53,1.36,1.78.8,2.97-.61,1.28-1.75,1.86-2.97,1.58l.17-.8c.86.19,1.81-.14,2.25-1.03.34-.75.14-1.61-.55-1.95-1.78-.84-2.69,3-4.83,1.97-1.06-.5-1.31-1.75-.78-2.89.53-1.14,1.64-1.5,2.7-1.33l-.14.78Z"/>
      </g>
      <g id="Path23">
        <path class="cls-9" d="m202.86,137.16l-.64,2.03,6.17,1.95-.25.78-6.17-1.95-.64,2.03-.61-.2,1.53-4.84.61.2Z"/>
      </g>
      <g id="Path24">
        <path class="cls-9" d="m208.62,131.6c1.86.44,2,1.92,1.72,3-.25,1.08-1.03,2.3-2.89,1.89l-4.75-1.14.2-.81,4.25,1.03c1.08.25,2.14.41,2.5-1.14.39-1.53-.64-1.89-1.72-2.14l-4.23-1.03.2-.81,4.73,1.14Z"/>
      </g>
      <g id="Shape8">
        <path class="cls-9" d="m207.11,127.18l1.56.75.36-2.14-1.92.22v-.78l5.09-.69-.14.86-2.36.31-.44,2.53,2.11,1.08-.14.83-4.11-2.14v-.83Zm-1.95-.95l1.95.95v.83l-2.5-1.31.19-1.17,2.31-.31v.78l-1.95.22Z"/>
      </g>
      <g id="Path25">
        <path class="cls-7" d="m43.92,216.7c27.65,28.13,55.5,31.82,69.18,54.61,14.21-23.23,37.32-24.5,68.75-55.94-17.84-9.3-27.77-25.69-28.32-26.7-1.14-.6-2.79-1.2-3.86-1.45,0,1.14,1.74,3.62,3.39,5.14-2.25,2.88,1.59,4.79-2.14,7.64.63-2.89-2.21-6.21-3.39-5.37-2.04-3.33-2.48-9.38-4.09-8.48-1.29,6.26-4.26,5.34-6.72,8.28-.82.82-3.77,4.24-5.28,5.76-1.31-4.47-2.38-7.71-3.54-10.97-11.51-1.68-21.25-1.39-30.45.03-.7,1.77-2.88,7.93-3.66,11.36-2.69-1.3-6.07-6.19-7.19-8.07-3.28-1.9-3.76-3.6-4.42-6.39-1.64-.87-1.98,5.14-4.08,8.48-.87-.78-3.97,2.01-3.39,5.37-3.73-2.82.14-4.93-2.11-7.64,1.12-1.12,3.23-3.5,3.39-5.13-1.02.22-2.8.86-3.84,1.44-.26.06-.39.12-.51.24-.65.55-1.33,2.43-2.21,2.73-1.94,3.66-12.9,19.11-25.49,25.07Z"/>
      </g>
      <g id="Path26">
        <path class="cls-7" d="m102.91,176.78s6.05-12.64,9.99-12.64,9.68,12.57,9.68,12.57c-6.06-.56-14.01-.48-19.67.07Z"/>
      </g>
      <g id="Path27">
        <path class="cls-2" d="m98,255.27c2.75,1.95,6.56,5.26,8.53,7.42,7.75-21.2,52.02-26.62,56.43-61.85-8.67,21.59-57.71,33.32-64.97,54.44Z"/>
      </g>
      <g id="Path28">
        <path class="cls-9" d="m105.45,251.32c-.69-.25-1.36-.36-1.86.33-.34.47-.31,1.2.2,1.56,1.27.95,2.67-1.97,4.47-.67.89.67.95,1.75.28,2.64-.69.95-1.75,1.19-2.78.72l.28-.61c.69.31,1.58.22,2.05-.44.42-.53.36-1.31-.19-1.7-1.42-1.06-2.73,1.94-4.45.66-.83-.61-.89-1.69-.28-2.53.61-.83,1.61-.95,2.5-.59l-.22.61Z"/>
      </g>
      <g id="Path29">
        <path class="cls-9" d="m110.48,246.52c-.64-.42-1.39-.75-2.06-.14-.67.61-.69,1.75.64,3.17,1.31,1.42,2.42,1.5,3.09.89.61-.58.42-1.41.03-2.06l.56-.33c.58.92.64,2-.2,2.81-1,.92-2.59.7-4-.83-1.42-1.55-1.5-3.14-.5-4.06.86-.78,1.92-.61,2.81.03l-.36.53Z"/>
      </g>
      <g id="Path30">
        <path class="cls-9" d="m111.51,243.23l.6-.45,3.79,5.07-.6.45-3.79-5.07Z"/>
      </g>
      <g id="Path31">
        <path class="cls-9" d="m117.07,239.93l-2.36,1.61,1.22,1.81,1.7-1.17.33.48-1.7,1.16,1.39,2.03,2.53-1.73.33.48-3.08,2.11-3.62-5.25,2.92-2,.33.47Z"/>
      </g>
      <g id="Path32">
        <path class="cls-9" d="m122.57,243.26l-.59.36-3.36-5.4.92-.58,4.86,2.89.03-.03-2.67-4.25.59-.36,3.39,5.39-.59.36-5.64-3.31v.03l3.06,4.89Z"/>
      </g>
      <g id="Path33">
        <path class="cls-9" d="m127.57,233.39l-1.5.92,3.03,4.92-.58.36-3.03-4.92-1.5.89-.3-.47,3.61-2.2.28.5Z"/>
      </g>
      <g id="Path34">
        <path class="cls-9" d="m132.47,237.17l-.61.36-3.33-5.39.59-.36,3.36,5.39Z"/>
      </g>
      <g id="Shape9">
        <path class="cls-9" d="m133.6,233.37l1.31-.84-1.31-1.17v-.83l3.94,3.36-.58.39-1.61-1.36-1.75,1.11v-.66Zm0,3.08l.61-.36-.61-1.89v2.25Zm-1.28-6.22l1.08,3.28.2-.14v.66l-.03.03.03.14v2.25l-1.92-6.34.84-.53,1.08.95v.83l-1.28-1.14Z"/>
      </g>
      <g id="Path35">
        <path class="cls-9" d="m138.22,226.34l-2.33,1.66,1.28,1.78,1.64-1.19.34.47-1.64,1.2,1.44,2,2.47-1.78.34.47-3.06,2.17-3.69-5.17,2.89-2.06.33.45Z"/>
      </g>
      <g id="Path36">
        <path class="cls-2" d="m76,241.49c3.67,2.19,7.98,4.75,11.45,6.81,2.89-14.95,41.3-31.43,43.99-48.11-2.31,5.45-41.68,14.48-55.44,41.3Z"/>
      </g>
      <g id="Path37">
        <path class="cls-9" d="m87.31,242.18l1.53-2.33.47.33-1.92,2.89-5.31-3.5.39-.58,4.84,3.19Z"/>
      </g>
      <g id="Path38">
        <path class="cls-9" d="m85.59,234.79l.39-.46,4.87,4.09-.39.46-4.87-4.09Z"/>
      </g>
      <g id="Path39">
        <path class="cls-9" d="m90.75,230.23l-1.25,1.22,4.06,4.14-.47.47-4.09-4.11-1.25,1.22-.39-.39,3-2.97.39.42Z"/>
      </g>
      <g id="Path40">
        <path class="cls-9" d="m95.03,226.48l-1.34,1.14,3.81,4.36-.53.47-3.81-4.39-1.31,1.17-.39-.45,3.17-2.75.39.45Z"/>
      </g>
      <g id="Path41">
        <path class="cls-9" d="m99.09,223.15l-2.22,1.81,1.36,1.7,1.59-1.31.36.44-1.59,1.3,1.55,1.92,2.39-1.92.36.45-2.92,2.36-4-4.95,2.75-2.25.36.44Z"/>
      </g>
      <g id="Shape10">
        <path class="cls-9" d="m102.73,223.26l.69-.53c1.06-.86.92-1.47.53-1.95-.36-.44-.78-.56-1.22-.39v-.59c.89-.28,1.44.16,1.78.59.47.58.47,1.36.05,2.02l2.81,1.53-.58.47-2.72-1.5-1.03.8,1.78,2.26-.53.44-1.55-1.97v-1.19Zm-.03.03l.03-.03v1.19l-2.39-3.03,1.2-.95c.44-.36.86-.59,1.2-.67v.59c-.22.08-.45.22-.67.39l-.84.67,1.47,1.83Z"/>
      </g>
      <g id="Shape11">
        <path class="cls-9" d="m107.79,220.28v.03l1.39-1.12-1.39-1.03v-.78l4.17,2.92-.56.44-1.72-1.22-1.67,1.33.83,1.95-.56.45-.5-1.22v-1.75Zm-1.39-3.11h-.03l1.42,3.11v1.75l-2.03-4.92.75-.61,1.28.89v.78l-1.39-1Z"/>
      </g>
      <g id="Path42">
        <path class="cls-9" d="m112.01,212.7l-2.17,1.86,1.39,1.64,1.56-1.3.36.44-1.56,1.3,1.56,1.89,2.36-1.94.36.41-2.84,2.42-4.11-4.86,2.72-2.28.36.42Z"/>
      </g>
      <g id="Path43">
        <path class="cls-2" d="m54.95,226.64c13.48-21.48,33.44-19.21,38.75-25.86-3.17,17.54-25.69,23.38-27.89,34-5.06-3.58-8.09-5.75-10.86-8.14Z"/>
      </g>
      <g id="Path44">
        <path class="cls-9" d="m66.05,226.46c1.22.86,1,1.77.61,2.36-.36.5-.97.77-1.56.61l.11-.69c.31.17.7.05.92-.25.31-.48.11-1.06-.5-1.45l-3.84-2.62.39-.58,3.86,2.61Z"/>
      </g>
      <g id="Path45">
        <path class="cls-9" d="m70.3,221.73c1.14,1.25.58,2.33-.08,2.97-.69.64-1.81,1.12-2.98-.14l-2.97-3.2.5-.47,2.67,2.87c.67.72,1.39,1.36,2.34.47.97-.89.36-1.64-.31-2.36l-2.64-2.87.5-.47,2.97,3.2Z"/>
      </g>
      <g id="Path46">
        <path class="cls-9" d="m73.11,216.31c-.61-.44-1.19-.72-1.89-.22-.47.33-.64,1.06-.28,1.55.94,1.28,3.14-1.14,4.47.67.67.88.39,1.94-.5,2.61-.95.69-2.03.61-2.86-.14l.44-.5c.56.5,1.42.67,2.08.17.55-.39.72-1.14.3-1.67-1.03-1.42-3.17,1.06-4.45-.66-.61-.84-.34-1.89.5-2.5.83-.61,1.81-.42,2.56.16l-.39.53Z"/>
      </g>
      <g id="Path47">
        <path class="cls-3" d="m112.82,30.33c3.28.03,6.53.39,9.67,1.03.23-1.56,3.5-7.59,7.76-9.84-6.48.28-8.98,3.2-8.98,3.2l-1.44-6.09-4.12,5.97-2.92-7.06h.03l-2.89,7.09-4.09-5.98-1.47,6.06s-2.5-2.92-8.98-3.2c4.25,2.25,7.53,8.28,7.75,9.84,3.14-.64,6.39-.98,9.64-1.03"/>
      </g>
      <g id="Path48">
        <path class="cls-5" d="m112.82,136.58c1.31-1.03,2.28-2.19,3.08-3.56-3.3,5.06.48,12.03-2.5,16.07,1.28.67,4.17.89,5.67-.45-3.14,6.67.89,7.26-2.48,13.01,1.59.81,3.62-.39,3.62-.39,0,0,.5,6.72-.86,8.86,6.31.17,8.78-6,9.14-6.81,1.5,2.64-3.45,13.4-3.45,13.4,0,0,5.91-.16,8.78-9.75,1.79,2.97,6.78,12.64,7.59,17.78.47.86-5.14,6.95-6.92,7.67-3.14,1.45-1.37,5.31-1.37,5.31,0,0,1.5-4,3.58-3.28,2.42-2.83,5.53-2.11,6.75-8.28,1.64-.87,2.08,5.39,4.09,8.47.83-.77,4,2,3.39,5.37,3.73-2.83-.14-4.84,2.11-7.64-3.45-3.45-3.39-5.14-3.39-5.14,0,0,2.17.53,3.83,1.45,1.34.11,1.78,3.89,3.81,2.89,3.3,1.03,3.39,4.33,3.39,4.33,0,0,2.37-4.64-.78-4.78,3.08-4.84-8.26-4.78-4.31-4.72-1.39-1.53-3.25-1.42-5.31-2.06-2.06-.64-3.7-.5-5.95-5.59-2.25-5.09-5.03-12.37-5.03-12.37l-.13-2.47s4.58,7.14,15.03,4.5c-4.61-1.5-6.25-5.31-6.25-5.31,0,0,2.97.31,4.25-1.22-7.42-6.84-6.22-8.73-6.22-8.73,0,0,2.31-.33,3.89-1.78-4.92-.97-8.37-8.11-8.37-8.11,0,0,2.42.39,4.11-.14-6.06-3.92-8.47-10.56-8.47-10.56,0,0,22.62,11.42,39.88-.75-28.04,4.95-33.77-3.06-33.77-3.06,0,0,.66-.42,1.08-.83,6.92,3.39,16.01,3.97,21.79,2.67,3.34-.75-13.23,1.27-20.92-3.59.42-.53.89-1.22,1.03-1.55,3.75,4.31,35.1,4.73,43.49-5.92-15.48,7.7-38.59,3.87-38.9,2.49.61-.53.46-.36,1.18-1.08,4.98,2.42,18.65,1.46,22.55.29,2.92-.86-15.21,1.8-21.71-1.2.42-.47.68-.91.99-1.33,18.23,3.33,48.43-7.39,48.43-14.53-17.98,10.64-41.37,12.8-46.81,10.86.3-1.62.31-1.85.36-2.45,3.14.36,19.22.93,28.69-3.96,5.53-1.97-11.08,4.92-28.25,3.31.44-.81.91-1.33,1.35-2.36,9.89,2.67,50.8-6.7,51.21-22.26-19.43,18.2-51.49,17.67-51.49,17.67,0,0,.5-.96,1-2.02,7.56-.75,30.56-4.32,34.73-8.65-.08-.75-7.13,4.76-34.42,7.73.3-.65.6-2.11.6-2.11,0,0,51.41-7.06,50.44-24.98-12.86,16.56-50.19,19.45-50.19,19.45,0,0-.19-1.24-.31-1.76,9.67-1.39,25.77-4.08,35.44-9.91,1.42-1.58-14.19,7-35.23,8.78.14-1.14.15-1.65.13-2.22,0,.52,48.89-5.59,52.28-28.54-11.73,17.56-53.06,23.93-53.06,23.93,0,0-.53-1.4-.84-2.11.47-.1,26.02-2.72,38.42-12.14-18.09,8.95-38.86,11.14-39,10.91-.22-.36-.31-.54-.55-.94-.77-2.42,51.42-6.06,54.61-34.18-14.42,20.71-44.33,21.32-46.02,21.12-22.71-3.31-17.59,10.31-18.04,11.34.44,16.68-9.83,16.11-13.25,11.7.47-.05.52.03,1.8-.36-4.25-4.28-7.92-12.03-7.92-12.03,0,0,1.58.19,2.28.33-3.82-4.67-5.36-12.64-5.36-12.64,0,0,1.36.75,3.14,1.03-7.92-15.23-8.84-22.12-8.95-24.51.11-1.92,2.2-1.14,5.25-5.42-3.98,1.5-10.83.93-11.53.91,0,0-4.86-.36-6.92-.86-2.2-.5-4.59.53-4.25,2.09.31.42-.44,1.17-.44,1.17,0,0-4.03-1.47-8.53-.17-1.06.75,0,3.06-1.2,4.97.14-1.03,3-2.92,4.2-1.33,1.33,1.89,6.14.89,6.73,3.36-.14,2.03,2.39,6.39-4.78,19.81,1.78-.28,3.14-1.06,3.14-1.06,0,0-1.51,7.97-5.34,12.64.7-.14,2.28-.33,2.28-.33,0,0-3.67,7.75-7.92,12.03,1.28.39,1.33.31,1.81.36-3.42,4.41-13.7,4.98-13.25-11.7-.45-1.03,4.67-14.65-18.04-11.34-1.69.2-31.6-.41-46.02-21.12,3.19,28.12,55.39,31.76,54.61,34.18-.24.4-.33.57-.55.94-.14.22-20.91-1.96-39-10.91,12.4,9.42,37.94,12.04,38.42,12.14-.31.71-.84,2.11-.84,2.11,0,0-41.33-6.36-53.06-23.93,3.39,22.96,52.29,29.07,52.28,28.54-.02.57,0,1.08.13,2.22-21.04-1.78-36.65-10.37-35.23-8.78,9.67,5.84,25.77,8.53,35.44,9.91-.12.51-.31,1.76-.31,1.76,0,0-37.32-2.89-50.19-19.45-.97,17.93,50.44,24.98,50.44,24.98,0,0,.3,1.47.6,2.11-27.29-2.97-34.34-8.48-34.42-7.73,4.17,4.34,27.17,7.9,34.73,8.65.5,1.06,1,2.02,1,2.02,0,0-32.06.53-51.48-17.67.42,15.56,41.32,24.93,51.21,22.26.45,1.03.91,1.56,1.35,2.36-17.17,1.61-33.78-5.28-28.25-3.31,9.48,4.89,25.55,4.32,28.69,3.96.05.61.06.83.37,2.45-5.45,1.95-28.83-.21-46.81-10.86,0,7.14,30.2,17.87,48.43,14.53.3.42.57.86.99,1.33-6.5,3-24.63.34-21.71,1.2,3.89,1.17,17.57,2.13,22.55-.29.72.72.57.55,1.18,1.08-.31,1.39-23.42,5.21-38.9-2.49,8.39,10.65,39.74,10.23,43.49,5.92.14.34.6,1.02,1.03,1.55-7.7,4.86-24.26,2.84-20.93,3.59,5.78,1.31,14.87.73,21.79-2.67.42.42,1.08.83,1.08.83,0,0-5.72,8-33.77,3.06,17.26,12.17,39.88.75,39.88.75,0,0-2.42,6.64-8.47,10.56,1.7.53,4.11.14,4.11.14,0,0-3.45,7.14-8.37,8.11,1.58,1.45,3.89,1.78,3.89,1.78,0,0,1.19,1.89-6.22,8.73,1.28,1.53,4.25,1.22,4.25,1.22,0,0-1.64,3.81-6.25,5.31,10.45,2.64,15.03-4.5,15.03-4.5l-.13,2.47s-2.79,7.28-5.04,12.37c-2.25,5.08-3.89,4.95-5.95,5.59-2.05.64-3.92.53-5.3,2.06,3.95-.05-7.39-.11-4.31,4.72-3.14.14-.78,4.78-.78,4.78,0,0,.08-3.3,3.39-4.33,2.02,1,2.47-2.78,3.81-2.89,1.66-.92,3.83-1.45,3.83-1.45,0,0,.05,1.69-3.39,5.14,2.25,2.81-1.61,4.81,2.11,7.64-.61-3.36,2.56-6.14,3.39-5.37,2-3.08,2.44-9.34,4.08-8.47,1.22,6.17,4.34,5.44,6.75,8.28,2.08-.72,3.58,3.28,3.58,3.28,0,0,1.78-3.86-1.36-5.31-1.78-.72-7.39-6.81-6.92-7.67.81-5.14,5.8-14.81,7.59-17.78,2.86,9.59,8.78,9.75,8.78,9.75,0,0-4.95-10.76-3.45-13.4.36.81,2.84,6.98,9.15,6.81-1.36-2.14-.86-8.86-.86-8.86,0,0,2.03,1.19,3.61.39-3.36-5.75.67-6.34-2.47-13.01,1.5,1.34,4.39,1.11,5.67.45-2.97-4.03.81-11-2.5-16.07.8,1.37,1.78,2.53,3.08,3.56Z"/>
      </g>
      <g id="Shape12">
        <path class="cls-4" d="m107.18,126.85c.86,3,1.92,5.09,2.56,6.17m-13.43,24.55c-.28,2.11.45,4.63.83,5.74m12.37-121.12c-.45,2.47,3.31,3.03,3.31,3.03m-10.76-6.03c2.14,0,6.42-1.14,6.67,1.69,0,1.14-1.28,1.81-2.58.86-1.31-.95-.78-2.56-4.09-2.56Zm-6,4.78c.97-1.83,7.67,1.75,11.78,1.2"/>
      </g>
      <g id="Path49">
        <path class="cls-6" d="m93.89,129.43c-2.45.92-11.34,3-14.87-4.72"/>
      </g>
      <g id="Shape13">
        <path class="cls-4" d="m89.89,150.54c-2.64,5.48,1.66,11.44,1.66,11.44,0,0,7.14-4.34,7.67-11.45m-10.76-17.98c2.22-4.11,7.81-1.64,11.54-3.09m6.56,19.18c-.99-.84-3.33-3.94-3.75-6.22m2.61,18.84c-2.64-1.25-7.09-5.48-6.14-15.15m-21.62,16.98c7.41-.54,10.98-5.39,11.68-6.09m-9.7-3.85c1.92.28,11.9.77,14.99-9.88m-10.52-.03c2.75-.31,8.62-2.5,11.03-6.5m-.17.75c1.2-5.59,4.72-9.67,8.62-8.23,5.67,2.09,2.05,13.84-7.81,19.09-1.39-3.59-1.5-7.5-.81-10.87Zm-.66-9.62c-5.23.84-23.85-2.52-24.5-15.33m-1.52-7.6c-3.7,2.25,4.75,14.46,12.92,16.02m-14.76-28.31c-3.69,14.79,15.71,29.38,27.16,26.66m.7,8.56c-7.95-1.95-13.06-4.73-13.48-5.97-.64-2.59,11.26-1.88,12.78-2.59-5.21.23-16.64-5.37-15.75-8.03.41-1.22,10.56.99,12.81-.03-2.23-.69-12.05-3.76-12.34-7.31-.15-1.9,6.96-.53,11.6-2.22-13.6,3.27-24.1-10.42-21.08-21.37-12.04,20.97,19.17,30.18,21.81,30.9m-.73-9.53c-1.7,12.59,7.54,18.01,3.96,27.71,5.5-.83,4.48-12.95,4.48-12.95m-5.59-15.92c0,16.06,5.59,15.92,5.59,15.92,0,0,4.67-1.11,5.84-11.98,0,0,2.03,11.59,8.61,13.25-1.08,4.75-5.47,9.81-9.23,11.5-4.23-3.31-5.23-12.78-5.23-12.78m-.36-27.23c0,.54.64,11.6-9.84,12.8-.33-4.86,3.39-11.72,3.39-11.72,1.06.11,13.78.7,13.81-14.59m-7.36,13.51c.03,10.34,6.39,15.26,6.39,15.26,0,0,8.42-4.53,8.42-14.87-.64-.25-7.45.33-7.45-13.89m-4.64-10.12c1.08-.55,4.97-2.95,6.7-8.92,2.14,9.81,5.39,8.9,5.39,9.67,0,7.9-10.53,11-15.15,11.56"/>
      </g>
      <g id="Path50">
        <path class="cls-6" d="m89.33,157c-3.73,4-3.36,10.93-2.31,14.12,3.75-2.14,8.75-8,9.28-13.5"/>
      </g>
      <g id="Shape14">
        <path class="cls-4" d="m118.46,126.85c-.86,3-1.92,5.08-2.56,6.17m13.43,24.55c.28,2.11-.44,4.63-.83,5.74"/>
      </g>
      <g id="Path51">
        <path class="cls-6" d="m131.74,129.43c2.45.92,11.34,3,14.87-4.72"/>
      </g>
      <g id="Shape15">
        <path class="cls-4" d="m135.74,150.54c2.64,5.48-1.66,11.44-1.66,11.44,0,0-7.14-4.34-7.67-11.45m10.76-17.98c-2.22-4.11-7.82-1.64-11.54-3.09m-6.55,19.18c.99-.84,3.33-3.94,3.75-6.22m-2.61,18.84c2.64-1.25,7.09-5.48,6.14-15.15m21.62,16.98c-7.41-.54-10.98-5.39-11.67-6.09m9.7-3.85c-1.93.28-11.9.77-15-9.88m10.52-.03c-2.75-.31-8.61-2.5-11.03-6.5m.17.75c-1.19-5.59-4.72-9.67-8.62-8.23-5.67,2.09-2.05,13.84,7.81,19.09,1.39-3.59,1.5-7.5.8-10.87Zm.67-9.62c5.22.84,23.85-2.52,24.5-15.33m1.52-7.6c3.7,2.25-4.75,14.46-12.92,16.02m14.75-28.31c3.7,14.79-15.71,29.38-27.15,26.66m-.7,8.56c7.95-1.95,13.06-4.73,13.48-5.97.64-2.59-11.25-1.88-12.78-2.59,5.21.23,16.64-5.37,15.75-8.03-.4-1.22-10.56.99-12.81-.03,2.23-.69,12.05-3.76,12.33-7.31.15-1.9-6.96-.53-11.6-2.22,13.6,3.27,24.1-10.42,21.08-21.37,12.05,20.97-19.17,30.18-21.81,30.9m.73-9.53c1.7,12.59-7.54,18.01-3.96,27.71-5.5-.83-4.47-12.95-4.47-12.95m5.58-15.92c0,16.06-5.58,15.92-5.58,15.92,0,0-4.67-1.11-5.84-11.98,0,0-2.03,11.59-8.61,13.25,1.08,4.75,5.47,9.81,9.22,11.5,4.22-3.31,5.23-12.78,5.23-12.78m.36-27.23c0,.54-.64,11.6,9.84,12.8.33-4.86-3.39-11.72-3.39-11.72-1.06.11-13.79.7-13.81-14.59m7.36,13.51c-.02,10.34-6.39,15.26-6.39,15.26,0,0-8.42-4.53-8.42-14.87.64-.25,7.45.33,7.45-13.89m4.64-10.12c-1.08-.55-4.97-2.95-6.7-8.92-2.14,9.81-5.39,8.9-5.39,9.67,0,7.9,10.53,11,15.15,11.56"/>
      </g>
      <g id="Path52">
        <path class="cls-6" d="m136.3,157c3.73,4,3.36,10.93,2.31,14.12-3.75-2.14-8.75-8-9.28-13.5"/>
      </g>
      <g id="Shape23">
        <g>
          <path class="cls-1" d="m491.57,147.43v.71h-11.34v-.71c1.56-.11,2.57-.34,3.04-.7.46-.35.69-1.26.69-2.74v-17.04c0-1.41-.23-2.32-.69-2.73-.47-.4-1.48-.64-3.04-.72v-.71h11.34v.71c-1.56.08-2.57.32-3.03.72-.46.41-.69,1.32-.69,2.73v17.04c0,1.48.23,2.39.69,2.74.46.36,1.47.59,3.03.7Z"/>
          <path class="cls-1" d="m475.75,81.49l5.63,5.67h-1.55l-5.9-3.72c-.41-.26-.7-.52-.88-.77-.19-.25-.28-.53-.28-.86,0-.36.13-.66.4-.89.26-.23.56-.35.9-.35.32,0,.62.1.89.28.28.18.54.39.79.64Z"/>
          <path class="cls-1" d="m484.75,172.47h-10.1c-.99,2.51-1.59,4.04-1.78,4.59s-.29.99-.29,1.31c0,.65.26,1.1.79,1.34.32.15.93.26,1.83.34v.71h-7.6v-.71c.99-.11,1.73-.48,2.22-1.11.5-.63,1.34-2.36,2.53-5.18l7.99-18.8h.76l9.55,21.72c.63,1.44,1.14,2.33,1.52,2.67s1.02.57,1.92.7v.71h-9.75v-.71c1.12-.1,1.85-.22,2.17-.36.32-.15.49-.5.49-1.06,0-.18-.07-.51-.19-.98-.13-.47-.3-.97-.52-1.49l-1.54-3.69Zm-5.04-12.1l-4.41,10.55h8.8l-4.39-10.55Z"/>
          <path class="cls-1" d="m477.35,94.44l-4.41,10.55h8.8l-4.39-10.55Zm-7.36,13.39l7.98-18.8h.76l9.55,21.72c.63,1.44,1.14,2.33,1.52,2.67s1.02.57,1.92.7v.71h-9.74v-.71c1.12-.1,1.84-.22,2.17-.36.32-.15.48-.5.48-1.06,0-.18-.06-.51-.19-.98-.12-.48-.29-.97-.52-1.49l-1.54-3.69h-10.09c-1,2.51-1.59,4.04-1.78,4.59-.2.55-.29.99-.29,1.31,0,.65.26,1.09.78,1.34.33.15.93.26,1.83.34v.71h-7.59v-.71c.99-.11,1.72-.48,2.22-1.11.49-.63,1.33-2.36,2.53-5.18Z"/>
          <path class="cls-1" d="m461.78,122.79c3.48,0,6.43.58,8.83,1.72,4.34,2.06,6.51,5.74,6.51,11.04,0,1.91-.39,3.72-1.17,5.45-.78,1.72-1.95,3.17-3.52,4.35-1,.75-2.04,1.32-3.11,1.71-1.96.72-4.37,1.08-7.22,1.08h-1.03v-1.42c2.99,0,5.46-.59,7.39-1.78,2.97-1.82,4.45-4.93,4.45-9.34,0-3.93-1.22-6.89-3.66-8.88-2.1-1.69-4.88-2.54-8.33-2.54v-1.39h.86Z"/>
          <path class="cls-1" d="m459.17,146.42c.31.2.94.3,1.9.3v1.42h-9.61v-.71c1.39-.15,2.3-.4,2.73-.75.42-.36.63-1.25.63-2.69v-17.04c0-1.4-.2-2.3-.61-2.7-.42-.4-1.33-.64-2.75-.75v-.71h9.46v1.39c-.86,0-1.44.09-1.75.28-.3.19-.46.6-.46,1.23v19.49c0,.63.16,1.04.46,1.24Z"/>
          <path class="cls-1" d="m465.03,180.76h-20.62v-.71c1.41-.15,2.32-.4,2.74-.75.42-.36.63-1.25.63-2.69v-17.04c0-1.36-.21-2.25-.62-2.67s-1.33-.68-2.75-.78v-.71h10.82v.71c-1.42.08-2.36.31-2.84.69-.48.39-.72,1.22-.72,2.49v18.41c0,.42.07.76.22,1,.14.24.46.4.94.46.29.04.59.06.91.07.32.02.92.02,1.79.02,3.41,0,5.71-.28,6.91-.84s2.36-1.99,3.49-4.3h.97l-1.87,6.64Z"/>
          <path class="cls-1" d="m443.56,180.05v.71h-11.34v-.71c1.56-.11,2.57-.34,3.03-.7.47-.35.7-1.27.7-2.74v-17.04c0-1.41-.23-2.32-.7-2.73-.46-.4-1.47-.64-3.03-.72v-.71h11.34v.71c-1.56.08-2.57.32-3.03.72-.46.41-.69,1.32-.69,2.73v17.04c0,1.47.23,2.39.69,2.74.46.36,1.47.59,3.03.7Z"/>
          <path class="cls-1" d="m446.76,91.07c-2.12,0-3.56.31-4.33.92s-1.34,1.94-1.73,4h-.93l.22-6.51h21.66l.21,6.51h-.92c-.45-2.04-1.02-3.38-1.71-3.99-.69-.62-2.15-.93-4.37-.93h-2.13v19.61c0,1.47.23,2.39.69,2.74s1.47.59,3.03.7v.71h-11.17v-.71c1.63-.13,2.64-.39,3.04-.8.39-.41.59-1.44.59-3.09v-19.16h-2.15Z"/>
          <path class="cls-1" d="m436.45,114.12v.71h-11.34v-.71c1.56-.11,2.57-.35,3.03-.7s.69-1.27.69-2.74v-17.05c0-1.41-.23-2.31-.69-2.72-.46-.4-1.47-.64-3.03-.72v-.71h11.34v.71c-1.57.08-2.57.32-3.04.72-.46.41-.69,1.31-.69,2.72v17.05c0,1.47.23,2.39.69,2.74.47.35,1.47.59,3.04.7Z"/>
          <path class="cls-1" d="m435.72,148.68c-4.15,0-6.96-1.34-8.46-4.04-.81-1.44-1.22-3.35-1.22-5.72v-11.97c0-1.4-.21-2.3-.64-2.69s-1.37-.64-2.82-.76v-.71h10.87v.71c-1.47.11-2.42.35-2.86.74-.44.4-.66,1.3-.66,2.71v12.25c0,2.01.28,3.57.83,4.69,1.02,2.05,2.96,3.07,5.82,3.07,3.13,0,5.23-1.04,6.3-3.14.6-1.17.9-2.98.9-5.42v-9.98c0-2.08-.25-3.39-.75-3.91-.5-.54-1.45-.87-2.84-1.01v-.71h8.86v.71c-1.48.17-2.45.53-2.9,1.08-.46.56-.69,1.84-.69,3.84v9.98c0,2.64-.4,4.7-1.21,6.19-1.5,2.73-4.34,4.09-8.53,4.09Z"/>
          <path class="cls-1" d="m417.98,181.3c-4.14,0-6.96-1.34-8.46-4.04-.81-1.45-1.22-3.35-1.22-5.72v-11.97c0-1.4-.21-2.3-.64-2.69s-1.37-.64-2.81-.76v-.71h10.86v.71c-1.47.1-2.42.35-2.86.74-.43.4-.65,1.3-.65,2.71v12.25c0,2.01.27,3.57.82,4.69,1.02,2.05,2.96,3.07,5.82,3.07,3.13,0,5.23-1.05,6.3-3.14.6-1.17.9-2.98.9-5.43v-9.97c0-2.08-.25-3.39-.75-3.92s-1.44-.86-2.84-1v-.71h8.87v.71c-1.49.17-2.46.52-2.91,1.08-.46.55-.69,1.83-.69,3.84v9.97c0,2.65-.4,4.71-1.21,6.2-1.5,2.73-4.34,4.09-8.53,4.09Z"/>
          <path class="cls-1" d="m411.6,113.91c1.22,0,2.28-.38,3.17-1.16.89-.77,1.33-1.85,1.33-3.23,0-1.25-.45-2.34-1.34-3.26-.59-.58-1.82-1.47-3.7-2.63l-3.27-2.05c-.98-.62-1.76-1.25-2.35-1.89-1.09-1.21-1.63-2.54-1.63-4,0-1.93.64-3.54,1.93-4.82,1.28-1.29,2.98-1.93,5.1-1.93.88,0,1.93.21,3.16.64s1.93.65,2.1.65c.48,0,.8-.11.98-.34.18-.22.32-.54.43-.95h.78l.84,8.15h-.91c-.63-2.45-1.63-4.17-3.01-5.14s-2.74-1.46-4.08-1.46c-1.05,0-1.96.31-2.75.93-.77.61-1.17,1.47-1.17,2.57,0,.99.3,1.83.9,2.52.6.72,1.53,1.46,2.79,2.23l3.36,2.08c2.11,1.29,3.59,2.49,4.46,3.57.85,1.1,1.27,2.4,1.27,3.89,0,2.01-.76,3.69-2.27,5.03-1.52,1.35-3.45,2.02-5.81,2.02-1.18,0-2.42-.22-3.71-.67s-2.03-.67-2.22-.67c-.45,0-.75.14-.91.41-.15.27-.25.57-.31.88h-.84l-1.14-8.16h.88c.65,1.72,1.41,3.09,2.28,4.12,1.52,1.78,3.41,2.67,5.66,2.67Z"/>
          <path class="cls-1" d="m413.13,124.38h-2.13v19.61c0,1.48.23,2.39.69,2.74.46.36,1.47.59,3.03.7v.71h-11.17v-.71c1.62-.12,2.63-.39,3.03-.8s.6-1.44.6-3.09v-19.16h-2.15c-2.12,0-3.57.31-4.33.92-.77.61-1.35,1.95-1.73,4h-.94l.23-6.51h21.66l.2,6.51h-.91c-.45-2.04-1.02-3.37-1.71-3.99-.7-.62-2.15-.93-4.37-.93Z"/>
          <path class="cls-1" d="m390.76,154.87c3.38.01,6.25,1.13,8.61,3.35,2.61,2.46,3.91,5.75,3.91,9.88,0,3.26-.83,6.03-2.48,8.28-1.59,2.16-3.77,3.61-6.53,4.35l-.39-1.52c.97-.46,1.86-1.17,2.66-2.11,1.6-1.87,2.4-4.88,2.4-9s-.81-7.2-2.43-9.06c-1.63-1.86-3.55-2.79-5.77-2.79l.02-1.38Z"/>
          <path class="cls-1" d="m386.34,180.63c-2.12-.98-3.76-2.11-4.92-3.37-2.16-2.33-3.24-5.38-3.24-9.16,0-4.09,1.28-7.37,3.85-9.84,2.36-2.26,5.26-3.39,8.7-3.39h.03l-.02,1.38c-2.3,0-4.24.97-5.83,2.9-1.6,1.92-2.39,4.9-2.39,8.95s.79,7,2.38,8.93c1.58,1.93,3.53,2.89,5.84,2.89,1.13,0,2.18-.23,3.14-.71l.39,1.52c-.36.1-.72.18-1.1.25,1.55,2.23,3.41,3.81,5.61,4.74,1.23.52,2.9.91,4.99,1.16v.71h-1.57c-2.07,0-3.91-.17-5.51-.5-1.6-.34-3.06-.86-4.36-1.54-1.31-.67-2.53-1.61-3.64-2.81-1.12-1.19-1.74-1.82-1.86-1.89l-.49-.22Z"/>
          <path class="cls-1" d="m384.64,89.48c2.21,0,4.05.28,5.52.84,2.8,1.06,4.19,3.01,4.19,5.85,0,1.9-.62,3.37-1.86,4.39s-2.93,1.69-5.06,2.02l7.9,9.72c.48.59.97,1.03,1.45,1.3.49.27,1.12.45,1.88.52v.71h-6.18l-9.58-11.8-.6.03-.08-1.41c2.24-.13,3.88-.4,4.91-.81,2.03-.84,3.05-2.41,3.05-4.71s-.91-3.73-2.73-4.54c-.97-.43-2.26-.65-3.87-.65v-1.46h1.06Z"/>
          <path class="cls-1" d="m382.22,101.65l.08,1.41-1.08.06v7.55c0,1.42.22,2.32.64,2.69.44.38,1.37.63,2.82.76v.71h-10.64v-.71c1.47-.14,2.39-.42,2.75-.86.36-.43.54-1.44.54-3.03v-16.6c0-1.34-.2-2.22-.61-2.64-.4-.42-1.3-.69-2.68-.8v-.71h9.54v1.46c-1.09,0-1.75.08-1.99.23-.25.16-.37.52-.37,1.1v9.43c.34-.01.68-.03,1-.05Z"/>
          <path class="cls-1" d="m389.11,125.26c-1.38-.97-2.74-1.46-4.09-1.46-1.05,0-1.96.31-2.74.93s-1.17,1.48-1.17,2.57c0,.99.3,1.83.9,2.53.6.71,1.52,1.45,2.78,2.23l3.37,2.07c2.1,1.3,3.59,2.49,4.45,3.57.85,1.1,1.28,2.4,1.28,3.89,0,2.01-.76,3.69-2.27,5.04-1.52,1.34-3.46,2.02-5.81,2.02-1.19,0-2.42-.23-3.72-.68-1.29-.44-2.03-.67-2.21-.67-.45,0-.75.14-.91.41-.16.28-.26.57-.31.88h-.84l-1.14-8.15h.88c.65,1.72,1.4,3.09,2.28,4.11,1.52,1.78,3.4,2.67,5.66,2.67,1.22,0,2.27-.38,3.16-1.15.89-.78,1.34-1.86,1.34-3.24,0-1.25-.45-2.33-1.35-3.25-.58-.59-1.81-1.47-3.69-2.64l-3.27-2.04c-.98-.63-1.77-1.26-2.35-1.89-1.09-1.21-1.63-2.55-1.63-4.01,0-1.93.64-3.54,1.93-4.82,1.28-1.29,2.98-1.93,5.1-1.93.87,0,1.93.22,3.15.65,1.23.43,1.93.64,2.11.64.47,0,.8-.11.98-.33.18-.23.32-.55.42-.96h.79l.84,8.16h-.92c-.62-2.46-1.62-4.17-3-5.15Z"/>
          <path class="cls-1" d="m363.06,147.43v.71h-11.34v-.71c1.56-.11,2.57-.34,3.03-.7.46-.35.69-1.26.69-2.74v-17.04c0-1.41-.23-2.32-.69-2.73-.46-.4-1.47-.64-3.03-.72v-.71h11.34v.71c-1.56.08-2.57.32-3.03.72-.46.41-.7,1.32-.7,2.73v17.04c0,1.48.24,2.39.7,2.74.46.36,1.47.59,3.03.7Z"/>
          <path class="cls-1" d="m369.31,114.83h-20.71v-.71c1.41-.15,2.33-.4,2.74-.75.42-.36.63-1.25.63-2.69v-17.05c0-1.36-.21-2.24-.62-2.66s-1.33-.68-2.75-.78v-.71h20.36l.13,5.48h-.98c-.32-1.69-.81-2.78-1.45-3.27-.65-.5-2.1-.75-4.34-.75h-5.22c-.56,0-.91.09-1.04.27s-.2.52-.2,1.02v8.55h5.91c1.64,0,2.68-.24,3.13-.73.45-.48.81-1.46,1.08-2.94h.9v8.85h-.9c-.28-1.48-.65-2.46-1.1-2.95-.45-.47-1.49-.71-3.11-.71h-5.91v9.48c0,.76.24,1.21.72,1.35.48.13,1.92.2,4.32.2,2.6,0,4.52-.28,5.75-.85,1.24-.57,2.35-1.94,3.34-4.12h1.06l-1.74,6.47Z"/>
          <path class="cls-1" d="m366.82,170.92l-4.39-10.55-4.42,10.55h8.81Zm-11.24,6.14c-.19.55-.29.99-.29,1.31,0,.65.26,1.1.79,1.34.32.15.93.26,1.83.34v.71h-7.6v-.71c.99-.11,1.73-.48,2.22-1.11s1.34-2.36,2.54-5.18l7.98-18.8h.76l9.55,21.72c.63,1.44,1.14,2.33,1.52,2.67s1.02.57,1.92.7v.71h-9.75v-.71c1.12-.1,1.85-.22,2.17-.36.32-.15.49-.5.49-1.06,0-.18-.07-.51-.19-.98s-.3-.97-.52-1.49l-1.54-3.69h-10.09c-1,2.51-1.59,4.04-1.79,4.59Z"/>
          <path class="cls-1" d="m345.45,155.85c.59.66.89,1.48.89,2.45,0,1.31-.46,2.51-1.36,3.6s-1.89,1.87-2.96,2.34l-.36-.74c.87-.51,1.62-1.12,2.23-1.85.62-.74.93-1.49.93-2.25,0-.18-.05-.3-.15-.38-.1-.07-.22-.11-.35-.11-.74.09-1.17.13-1.29.13-.49,0-.96-.17-1.41-.5-.45-.34-.67-.84-.67-1.5,0-.48.18-.97.54-1.45s.96-.72,1.78-.72,1.59.33,2.18.98Z"/>
          <path class="cls-1" d="m345.01,145.8c1.2-.56,2.36-1.99,3.48-4.3h.98l-1.87,6.64h-20.62v-.71c1.41-.15,2.32-.4,2.74-.75.42-.36.63-1.25.63-2.69v-17.04c0-1.36-.21-2.25-.62-2.67s-1.33-.67-2.75-.78v-.71h10.81v.71c-1.41.08-2.35.31-2.83.7-.48.38-.72,1.21-.72,2.49v18.4c0,.43.07.76.22,1,.14.25.46.4.94.46.29.04.59.06.91.08.32.01.91.02,1.79.02,3.41,0,5.71-.29,6.91-.85Z"/>
          <path class="cls-1" d="m343.41,90.79c-.59.49-1.16,1.47-1.74,2.94l-8.48,21.55h-.58l-9.47-21.06c-.8-1.79-1.44-2.9-1.91-3.33-.49-.44-1.19-.69-2.11-.76v-.65h10.21v.65c-.96.02-1.61.08-1.96.2-.61.2-.92.61-.92,1.23,0,.32.11.76.33,1.33.21.57.62,1.52,1.22,2.84l5.99,13.34,5.45-14.44c.24-.64.42-1.18.55-1.62.12-.45.18-.81.18-1.09,0-.75-.32-1.25-.95-1.52-.37-.15-.99-.24-1.85-.27v-.65h7.84v.65c-.81.12-1.41.34-1.8.66Z"/>
          <path class="cls-1" d="m336.3,178.42c1.2-.56,2.36-1.99,3.48-4.3h.98l-1.87,6.64h-20.62v-.71c1.41-.15,2.32-.4,2.74-.75.42-.36.63-1.25.63-2.69v-17.04c0-1.36-.21-2.25-.62-2.67s-1.33-.68-2.75-.78v-.71h10.81v.71c-1.41.08-2.35.31-2.83.69-.48.39-.72,1.22-.72,2.49v18.41c0,.42.07.76.21,1,.15.24.46.4.95.46.29.04.59.06.91.07.32.02.91.02,1.79.02,3.41,0,5.71-.28,6.91-.84Z"/>
          <path class="cls-1" d="m315.72,114.12v.71h-11.34v-.71c1.56-.11,2.57-.35,3.03-.7s.69-1.27.69-2.74v-17.05c0-1.41-.23-2.31-.69-2.72-.46-.4-1.47-.64-3.03-.72v-.71h11.34v.71c-1.57.08-2.57.32-3.04.72-.46.41-.69,1.31-.69,2.72v17.05c0,1.47.23,2.39.69,2.74.47.35,1.47.59,3.04.7Z"/>
          <path class="cls-1" d="m302.08,126.56c2.48-2.81,5.77-4.21,9.87-4.21,1.49,0,2.95.2,4.38.61s2.26.62,2.47.62c.55,0,.94-.11,1.17-.32s.42-.52.59-.91h.84l.3,8.06h-.88c-.79-1.86-1.6-3.24-2.43-4.16-1.51-1.59-3.47-2.39-5.89-2.39s-4.62.93-6.49,2.8-2.79,4.93-2.79,9.21c0,3.53.93,6.29,2.78,8.27,1.86,1.98,4.16,2.97,6.89,2.97.46,0,1-.04,1.62-.13.63-.08,1.22-.22,1.78-.41.91-.3,1.48-.56,1.71-.77.22-.22.33-.54.33-.96v-6.11c0-1.48-.21-2.4-.63-2.76-.41-.37-1.33-.59-2.74-.68v-.71h9.77v.71c-.95.06-1.58.22-1.89.47-.52.4-.79,1.22-.79,2.47v7.54c0,.45-1.1,1.05-3.3,1.79-2.2.75-4.32,1.13-6.35,1.13-3.74,0-6.89-1.1-9.46-3.28-2.84-2.41-4.25-5.64-4.25-9.69,0-3.56,1.13-6.62,3.39-9.16Z"/>
          <path class="cls-1" d="m315.83,180.76h-20.62v-.71c1.41-.15,2.33-.4,2.75-.75.41-.36.62-1.25.62-2.69v-17.04c0-1.36-.2-2.25-.61-2.67-.42-.42-1.33-.68-2.76-.78v-.71h10.82v.71c-1.41.08-2.36.31-2.84.69-.48.39-.72,1.22-.72,2.49v18.41c0,.42.07.76.22,1,.14.24.46.4.94.46.29.04.6.06.91.07.32.02.92.02,1.79.02,3.41,0,5.71-.28,6.91-.84s2.36-1.99,3.49-4.3h.97l-1.87,6.64Z"/>
          <path class="cls-1" d="m281.63,146.44c.48.14,1.92.21,4.32.21,2.6,0,4.51-.29,5.75-.86,1.24-.56,2.35-1.94,3.33-4.12h1.07l-1.74,6.47h-20.71v-.71c1.41-.15,2.32-.4,2.74-.75.42-.36.63-1.25.63-2.69v-17.04c0-1.36-.21-2.25-.62-2.67s-1.33-.67-2.75-.78v-.71h20.35l.14,5.48h-.98c-.32-1.68-.81-2.78-1.46-3.27-.64-.5-2.09-.75-4.34-.75h-5.21c-.57,0-.91.09-1.04.28-.13.18-.2.51-.2,1.01v8.55h5.91c1.64,0,2.68-.24,3.12-.72.45-.49.82-1.47,1.09-2.94h.9v8.84h-.9c-.29-1.48-.66-2.46-1.1-2.94-.45-.48-1.49-.72-3.11-.72h-5.91v9.48c0,.76.24,1.21.72,1.35Z"/>
          <path class="cls-1" d="m280.14,179.06c.48.14,1.92.2,4.31.2,2.6,0,4.52-.28,5.76-.85,1.23-.57,2.34-1.94,3.33-4.12h1.07l-1.4,5.22-.34,1.25h-20.71v-.71c1.41-.15,2.32-.4,2.74-.75.41-.36.62-1.25.62-2.69v-17.04c0-1.36-.2-2.25-.61-2.67s-1.33-.68-2.75-.78v-.71h20.35l.02.77.11,4.71h-.97c-.33-1.69-.81-2.78-1.46-3.27-.65-.5-2.1-.75-4.34-.75h-5.22c-.56,0-.91.09-1.04.27s-.19.52-.19,1.02v8.55h5.91c1.63,0,2.67-.24,3.12-.72.45-.49.81-1.47,1.09-2.95h.89v8.85h-.89c-.29-1.48-.66-2.46-1.11-2.94s-1.48-.72-3.1-.72h-5.91v9.48c0,.76.24,1.21.72,1.35Z"/>
          <path class="cls-1" d="m279.94,109.18c0,2.1.3,3.46.91,4.1.4.41,1.3.69,2.68.84v.71h-9v-.71c1.59-.16,2.6-.52,3.05-1.07.45-.56.67-1.85.67-3.87v-16.88l-.52-.61c-.56-.66-1.04-1.07-1.43-1.23-.39-.15-.98-.24-1.77-.27v-.71h6.54l14.79,18.33v-12.73c0-2.09-.31-3.46-.94-4.09-.41-.41-1.32-.67-2.73-.8v-.71h9v.71c-1.46.15-2.43.51-2.92,1.07s-.73,1.84-.73,3.85v20.17h-.65l-16.95-21.01v14.91Z"/>
          <path class="cls-1" d="m262.07,144.94c2.96-1.82,4.44-4.93,4.44-9.34,0-3.93-1.22-6.89-3.66-8.88-2.1-1.69-4.87-2.54-8.33-2.54v-1.39h.86c3.49,0,6.43.58,8.84,1.72,4.33,2.06,6.5,5.74,6.5,11.04,0,1.91-.39,3.72-1.16,5.45-.78,1.72-1.96,3.17-3.53,4.35-1,.75-2.03,1.32-3.11,1.71-1.95.72-4.36,1.08-7.22,1.08h-1.03v-1.42c3,0,5.46-.59,7.4-1.78Z"/>
          <path class="cls-1" d="m266.03,177.97c-1,.75-2.03,1.32-3.11,1.71-1.95.72-4.36,1.08-7.22,1.08h-1.03v-1.42c3,0,5.46-.59,7.4-1.78,2.96-1.82,4.44-4.94,4.44-9.34,0-3.93-1.22-6.89-3.66-8.88-2.1-1.69-4.87-2.54-8.33-2.54v-1.39h.86c3.49,0,6.43.58,8.84,1.72,4.33,2.06,6.5,5.74,6.5,11.04,0,1.91-.39,3.72-1.16,5.44-.78,1.73-1.96,3.18-3.53,4.36Z"/>
          <path class="cls-1" d="m252.97,90.93c-.43.39-.65,1.29-.65,2.7v12.26c0,2.01.27,3.57.82,4.69,1.02,2.05,2.96,3.07,5.82,3.07,3.13,0,5.23-1.05,6.3-3.14.6-1.17.9-2.98.9-5.43v-9.97c0-2.08-.25-3.39-.75-3.92s-1.44-.86-2.84-1v-.71h8.87v.71c-1.49.16-2.46.52-2.91,1.08-.46.55-.69,1.83-.69,3.84v9.97c0,2.65-.4,4.71-1.21,6.19-1.5,2.74-4.34,4.1-8.53,4.1s-6.96-1.35-8.46-4.04c-.81-1.45-1.21-3.35-1.21-5.72v-11.98c0-1.39-.22-2.29-.65-2.68s-1.37-.65-2.81-.76v-.71h10.87v.71c-1.48.1-2.43.35-2.87.74Z"/>
          <path class="cls-1" d="m252.32,177.8c0,.63.15,1.04.45,1.24.31.2.94.3,1.9.3v1.42h-9.61v-.71c1.39-.15,2.31-.4,2.73-.75.42-.36.64-1.25.64-2.69v-17.04c0-1.4-.21-2.3-.62-2.7s-1.33-.65-2.75-.75v-.71h9.46v1.39c-.86,0-1.44.09-1.75.28-.3.19-.45.6-.45,1.23v19.49Z"/>
          <path class="cls-1" d="m252.32,145.18c0,.63.15,1.04.45,1.24.31.2.94.3,1.9.3v1.42h-9.61v-.71c1.39-.15,2.31-.4,2.73-.75.42-.36.64-1.25.64-2.69v-17.04c0-1.4-.21-2.3-.62-2.7s-1.33-.64-2.75-.75v-.71h9.46v1.39c-.86,0-1.44.09-1.75.28-.3.19-.45.6-.45,1.23v19.49Z"/>
        </g>
      </g>
    </g>
  </g>
</svg>