<?xml version="1.0" encoding="UTF-8"?>
<svg id="Livello_2" data-name="Livello 2" xmlns="http://www.w3.org/2000/svg" viewBox="0 0 1653.37 1445.34">
  <defs>
    <style>
      .cls-1 {
        fill: #442f06;
      }

      .cls-2 {
        fill: #f7a491;
      }

      .cls-3 {
        fill: #4c4c4c;
      }

      .cls-4 {
        fill: #3f3f3f;
      }

      .cls-5 {
        fill: #b2b2b2;
      }

      .cls-6 {
        fill: #efbe5e;
      }

      .cls-7 {
        fill: #e5ac7a;
      }

      .cls-8 {
        fill: #282828;
      }

      .cls-9 {
        fill: #f9c38a;
      }

      .cls-10 {
        fill: #dc4437;
      }

      .cls-11 {
        fill: #f47458;
      }

      .cls-12 {
        fill: #fffbf3;
      }

      .cls-13 {
        fill: #353535;
      }

      .cls-14 {
        fill: #f7f7f7;
      }

      .cls-15 {
        fill: #a8c9ec;
      }

      .cls-16 {
        fill: #839db9;
      }
    </style>
  </defs>
  <g id="Layer_1" data-name="Layer 1">
    <g>
      <path class="cls-6" d="m1643.87,1445.34H9.49c-5.24,0-9.49-4.25-9.49-9.49h0c0-5.24,4.25-9.49,9.49-9.49h1634.38c5.24,0,9.49,4.25,9.49,9.49h0c0,5.24-4.25,9.49-9.49,9.49Z"/>
      <g>
        <path class="cls-5" d="m259.89,0h1327.48c5.45,0,9.87,4.42,9.87,9.87v814.78c0,10.44-8.48,18.91-18.91,18.91H259.89c-10.44,0-18.91-8.48-18.91-18.91V18.91c0-10.44,8.48-18.91,18.91-18.91Z"/>
        <path class="cls-3" d="m268.63,32.42h1300.28c2.13,0,3.86,1.73,3.86,3.86v771c0,2.13-1.73,3.86-3.86,3.86H268.63c-2.13,0-3.86-1.73-3.86-3.86V36.28c0-2.13,1.73-3.86,3.86-3.86Z"/>
        <path class="cls-4" d="m1572.77,125.14V41.42c0-4.97-3.35-9-7.49-9H272.26c-4.13,0-7.49,4.03-7.49,9v526.53L1572.77,125.14Z"/>
        <g>
          <g>
            <path class="cls-12" d="m951.35,248.75l-596.98-.62c-9.08,0-16.43-7.38-16.42-16.46h0c0-9.08,7.38-16.43,16.46-16.42l596.98.62c9.08,0,16.43,7.38,16.42,16.46h0c0,9.08-7.38,16.43-16.46,16.42Z"/>
            <path class="cls-12" d="m1391.74,249.21l-388.3-.4c-9.08,0-16.43-7.38-16.42-16.46h0c0-9.08,7.38-16.43,16.46-16.43l388.3.4c9.08,0,16.43,7.38,16.42,16.46h0c0,9.08-7.38,16.43-16.46,16.42Z"/>
          </g>
          <path class="cls-12" d="m1297.09,312.97l-942.76-.98c-9.08,0-16.43-7.38-16.42-16.46h0c0-9.08,7.38-16.43,16.46-16.42l942.76.98c9.08,0,16.43,7.38,16.42,16.46h0c0,9.08-7.38,16.43-16.46,16.42Z"/>
          <path class="cls-12" d="m1116.41,376.64l-762.12-.79c-9.08,0-16.43-7.38-16.42-16.46h0c0-9.08,7.38-16.43,16.46-16.42l762.12.79c9.08,0,16.43,7.38,16.43,16.46h0c-.01,9.08-7.38,16.43-16.46,16.42Z"/>
          <path class="cls-12" d="m778.39,440.15l-424.15-.44c-9.08,0-16.43-7.38-16.42-16.46h0c0-9.08,7.38-16.43,16.46-16.43l424.15.44c9.08,0,16.43,7.38,16.42,16.46h0c0,9.08-7.38,16.43-16.46,16.42Z"/>
          <g>
            <path class="cls-12" d="m623.76,503.84l-269.56-.28c-9.08,0-16.43-7.38-16.42-16.46h0c0-9.08,7.38-16.43,16.46-16.42l269.56.28c9.08,0,16.43,7.38,16.42,16.46h0c0,9.08-7.38,16.43-16.46,16.42Z"/>
            <path class="cls-12" d="m845.55,504.07l-163.95-.17c-9.08,0-16.43-7.38-16.43-16.46h0c.01-9.08,7.38-16.43,16.46-16.42l163.95.17c9.08,0,16.43,7.38,16.43,16.46h0c0,9.08-7.38,16.43-16.46,16.42Z"/>
            <path class="cls-12" d="m1064.47,504.3l-163.95-.17c-9.08,0-16.43-7.38-16.43-16.46h0c0-9.08,7.38-16.43,16.46-16.42l163.95.17c9.08,0,16.43,7.38,16.43,16.46h0c0,9.08-7.38,16.43-16.46,16.42Z"/>
          </g>
          <path class="cls-12" d="m1038.18,568.13l-684.03-.71c-9.08,0-16.43-7.38-16.42-16.46h0c0-9.08,7.38-16.43,16.46-16.42l684.03.71c9.08,0,16.43,7.38,16.43,16.46h0c0,9.08-7.38,16.43-16.46,16.43Z"/>
        </g>
        <rect class="cls-12" x="507.9" y="789.74" width="104.62" height="21.39"/>
      </g>
      <g>
        <path class="cls-9" d="m707.57,505.42c3.98-8.77-14.9-28.87-20.44-34.81-5.54-5.94-2.14-1.76-10.99-3.76-1.08-.25-43.88,20.8-43.88,20.8-13.71,6.99-137.67,68.12-168.55,70.28-31.53,2.21-136.78-23.6-136.78-23.6l-37.75,54.62s148.31,30.53,188.09,23.45c32.94-5.86,129.88-70.53,170.33-91.57l.02.03c9.52-3.78,55.96-6.67,59.94-15.44Z"/>
        <path class="cls-13" d="m926.49,395.6l-264.57,102.32-.23.09c-4.94,1.91-10.49-.55-12.4-5.48-1.91-4.94.55-10.48,5.48-12.39.11-.05.26-.1.38-.14l268.75-91.25.09-.03c1.92-.65,4,.38,4.65,2.29.63,1.87-.33,3.9-2.15,4.6Z"/>
        <path class="cls-11" d="m698.54,483.76l-36.62,14.16-.23.09c-4.64,1.8-9.82-.27-12.01-4.62.04,1.04.24,2.08.64,3.1,1.91,4.94,7.46,7.39,12.4,5.48l.23-.09,38.12-14.75c-.81-1.14-1.66-2.27-2.52-3.38Z"/>
        <path class="cls-9" d="m704.76,471.51s10.68,33.07.14,38.05c-11.64,5.5-22.51,5.76-21.31,2.75,1.2-3.01,14.33-13.3,14.33-13.3,0,0-1.79-13.16-.32-18.82,1.48-5.67,3.39-11.29,7.15-8.67Z"/>
        <path class="cls-9" d="m688.04,475.92s-17.67-2.25-17.44-4.46c.23-2.22,5.55-4.61,5.55-4.61,0,0,27.46-3.21,25.11,2.37-2.36,5.58-13.21,6.7-13.21,6.7Z"/>
        <path class="cls-9" d="m715.04,487.08s-4.02-20.99-7.22-16.67c-3.86,5.22-3.2,27.31,1.78,30.26,4.98,2.94,7.81-1.85,5.44-13.59Z"/>
        <path class="cls-16" d="m326.46,521.19s106.02,23.97,129.37,26.01c23.35,2.04,161.02-62.96,161.02-62.96l28.23,44.42s-176.53,93.31-184.22,97.31l-160.52-13.28,26.13-91.5Z"/>
        <path class="cls-9" d="m243.72,1342.16s-6.07,35.34-9.3,41.07c-3.23,5.73,23.6,37.19,38.23,32.08,8.25-2.88,9.65-28.81,9.65-28.81l-5.98-7.36,8.26-30.91-40.86-6.07Z"/>
        <path class="cls-8" d="m234.03,1381.77s17.12,3.43,25.14,3.77c10.36.43,22.23-.65,22.23-.65,0,0,21.36,8.03,28.17,11.37,15.18,7.44,33.26,16.68,38.09,23.99,1.55,2.35,1.39,10.28-4.31,11.78-21.99,5.82-99.28,4.62-113.49-1.19-16.39-6.7,4.17-49.07,4.17-49.07Z"/>
        <path class="cls-9" d="m107.88,1342.16s-6.08,35.34-9.31,41.07c-3.23,5.73,23.6,37.19,38.23,32.08,8.25-2.88,9.65-28.81,9.65-28.81l-5.98-7.36,8.26-30.91-40.86-6.07Z"/>
        <path class="cls-8" d="m98.18,1381.77s17.12,3.43,25.14,3.77c10.36.43,22.23-.65,22.23-.65,0,0,21.35,8.03,28.17,11.37,15.18,7.44,33.26,16.68,38.09,23.99,1.55,2.35,1.39,10.28-4.31,11.78-21.99,5.82-99.28,4.62-113.49-1.19-16.39-6.7,4.17-49.07,4.17-49.07Z"/>
        <g>
          <path class="cls-8" d="m340.1,794.54l26.72,69.21s17.44,165.17,7.28,264.05c-4.25,41.35-87.44,247.2-87.44,247.2,0,0-11.49,3.45-26.2,1.38-6.26-.88-24.94-4.14-24.94-4.14l57.9-250.39-22.5-100.24-31.85-198.15,101.02-28.93Z"/>
          <path class="cls-13" d="m211.21,798.15l-29.49,77.79-11.03,246.17-75.72,235.65s24.82,13.79,62.75,12.41l92.4-224.56,80.23-283.92-3.18-61.17-115.96-2.38Z"/>
        </g>
        <path class="cls-14" d="m219.49,515.56s-34.45,4.79-43.51,11.45c-10.21,7.5-41.83,42.48-41.83,42.48,0,0,65.81,188.53,63.27,222.07-2.55,33.55-9.77,83.23-9.77,83.23,0,0,127.81,8.07,176.21-11.04,0,0-15.28-76.01-15.28-95.97s-22.47-216.69-28.58-227.14c-6.11-10.45-4.54-19.13-27.9-24.23-23.35-5.1-72.61-.85-72.61-.85Z"/>
        <path class="cls-15" d="m392.03,872.49c.82-4.01-18.07-126.34-18.62-133.09-5.48-67-19.2-190.29-42.75-218.59-2.83-2.63-22.12-2.93-29.82-3.88-12.91-1.58-26.3-2.67-26.3-2.67l16.82,21.72c12.17,27.87,23.02,54.8,26.89,85.51,11.24,89.04,22.9,261.97,26.89,263.41,4.46,1.61,45.07-3.52,46.89-12.41Z"/>
        <path class="cls-8" d="m233.44,342.87s-23.39-15.82-33.28,11.89c0,0-13.22-4-18.87,9.58,0,0-22.66-1.7-20.8,31.2,0,0-11.39.35-9.96,13.67,1.43,13.31,9.94,20.52,9.94,20.52,0,0-5.12,5.96.3,17.29,4.62,9.64,13.37,9.33,13.37,9.33,0,0,6.05,16.62,14.61,20.13,8.56,3.52,18.12-1.19,18.12-1.19,0,0,4.73,8.69,13.21,5.95,8.48-2.74,17.39-13.36,27.9-11.79,10.51,1.57,34.81-7.9,34.81-7.9,0,0,25.48-18.82,10.64-45.83,0,0,11.89-16.69-4.66-29.91,0,0,3.94-27.26-18.12-37.97-22.05-10.71-37.23-4.97-37.23-4.97Z"/>
        <path class="cls-9" d="m261.58,479.87l9.64,26.29s16.8,37.23,7.94,47.08c-8.86,9.85-55.29-37.79-55.29-37.79l-11.55-69.46,49.26,33.88Z"/>
        <path class="cls-7" d="m216.07,468.5c13.86,21.5,37.75,31.32,53.69,33.66l-8.17-22.29-49.26-33.88,3.74,22.51Z"/>
        <path class="cls-8" d="m177.78,365.88c1.33,6.01,9.64,9.28,18.56,7.31,8.92-1.97,15.08-8.44,13.75-14.45-1.33-6.01-9.63-9.28-18.56-7.31-8.93,1.97-15.09,8.44-13.76,14.45Z"/>
        <path class="cls-9" d="m221.79,374.65c18.56-11.35,42.92-2.74,50.56,17.29,3.32,8.71,7.03,19.76,9.98,32.09,7.12,29.65-1.9,62.02-15.41,65-13.52,2.99-55.13-8.03-65.81-49.99-6.6-25.91,1.19-52.48,20.68-64.39Z"/>
        <path class="cls-9" d="m211.81,440.19c1.45,6.57-1.73,12.85-7.1,14.03-5.37,1.19-10.9-3.17-12.35-9.74-1.45-6.56,1.73-12.85,7.1-14.03,5.37-1.19,10.9,3.17,12.35,9.74Z"/>
        <path class="cls-8" d="m277.08,346.9c16.41,7.98,25.01,23.7,19.22,35.12-5.79,11.42-23.78,14.22-40.19,6.23-16.4-7.97-25.01-23.7-19.22-35.12,5.79-11.42,23.78-14.22,40.19-6.24Z"/>
        <path class="cls-8" d="m242.58,364.04c1.06,4.8-3.88,9.98-11.04,11.57-7.16,1.58-13.82-1.03-14.89-5.84-1.06-4.81,3.88-9.99,11.04-11.57,7.16-1.58,13.82,1.03,14.88,5.84Z"/>
        <path class="cls-8" d="m289.32,392.51c1.36,6.18-2.48,12.28-8.6,13.63-6.11,1.35-12.17-2.57-13.54-8.75-1.36-6.18,2.48-12.29,8.59-13.64,6.11-1.35,12.17,2.57,13.54,8.75Z"/>
        <path class="cls-15" d="m223.57,515.24s-56.47,5.79-70.91,15.28c-9.18,6.03-2,73.28-2,73.28,0,0,12.99,101.58,11.19,152.9-2.99,85.24-29.93,142.89-26.11,146.36,23.25,12.98,128.54,1.82,130-8.45,12.41-86.88-42.18-379.37-42.18-379.37Z"/>
        <path class="cls-9" d="m321.66,678.25c-2.63,1.21-6.95,3.33-9.83,5.26-3.11,2.09-6.62,3.03-9.49,4.4-5.71,2.72-9.83,4.77-9.81,4.48.03-.38-1.47-.62,1.38-2.58,3.42-2.36,11.76-5.81,16.53-9.66,2.7-2.18,8.62-6.41,8.62-6.41,0,0,7.79-8,7.48-8.59-1.67-3.21-8.5.81-11.8,4.24-3.2,1.15-9.31,5.77-9.31,5.77,0,0-14.39,6.66-15.32,4.68-.4-.84,7.97-5.95,15.4-12.21,6.9-5.81,12.95-12.77,12.03-14.27-1.56-2.53-9.9,3.14-9.9,3.14,0,0-5.64,4.27-7.61,5.55-2.32,1.5-9.6,5.48-9.6,5.48,0,0-25.95,12.71-26.67,10.77-.71-1.94-.51-7.71.84-9.04,1.34-1.33,5.07-2.52,6.42-3.85,1.35-1.33,1.98-4.18.5-5.89-1.48-1.71-10.41,2.32-10.41,2.32,0,0-7.24,3.33-10.49,7.77-11.26,15.39-8.27,16.57-9.77,18.5-1.77,2.29-38.2,15.59-38.2,15.59,0,0-107.11,39.89-112.97,41.84l12.89,35.76c6.73-.94,128.54-54.38,140.95-60.19,0,0,17.26-1.61,28.07-2.97,10.81-1.36,20.58-7.39,23.58-8.23.44-.12,10.27-3.5,21.35-10.82,9.54-6.31-2.31-4.56-2.31-4.56,0,0-19.72,8.6-20.09,6.97-.29-1.26,10.74-5.34,21.37-12.21,2.73-1.77,5.42-3.52,7.88-5.15,6.45-4.28,5.75-9.34-1.7-5.91Z"/>
        <path class="cls-15" d="m157.49,528.23s-18.39,2.53-34.25,25.28c-15.86,22.76-56.65,128.86-67.58,166.41-11.03,37.92-8.96,63.44,15.86,69.64,24.83,6.21,166.88-54.47,166.88-54.47l-12.41-45.51s-90.33,28.96-91.02,17.93l27.58-47.58s21.61-77-5.06-131.71Z"/>
        <path class="cls-16" d="m236.77,729.14c-13.47,5.64-143.92,59.88-167.74,53.99-8.56-2.12-14.39-6.52-17.99-12.84,2.87,9.86,9.39,16.5,20.48,19.28,24.83,6.21,166.88-54.47,166.88-54.47l-1.62-5.96Z"/>
        <g>
          <path class="cls-9" d="m1433.11,933s1.25-6.13,1.51-8.19c.3-2.42.65-9.76.65-9.76,0,0,0-25.61-1.88-25.45-1.89.15-4.35,4.54-4.9,6.13-.55,1.58-1.36,3.37-1.91,4.95-.55,1.58-2.19,2.47-4.2,1.92-2.01-.55-1.17-7.33-.41-9.61,2.37-7.12,12.52-24.88,13.51-26.81,1.18-2.28-6.99-46.69-8.58-62.13,0,0,0,0,0,0-3.35-25.2-8.06-50.93-8.43-53.6l-44.87-99.18,29.95-30.59s51.35,109.37,53.29,115.13c.92,2.74,4.17,61.74,4.14,61.75-.23,29.15-.51,54.84-.42,59.78,0,0,4.23,14.69,7.47,23.89,3.25,9.2,2.54,18.96,3.05,21.69.08.4,2.36,9.68.79,21.31-1.35,10.02-4.7-.15-4.7-.15,0,0-.86-19.06-2.36-18.75-1.16.24-.07,10.63-1.44,21.73-.36,2.86-.71,5.67-1.07,8.26-.92,6.79-5.38,8.11-5.56.84-.06-2.57-.06-6.83.37-9.87.47-3.28-.17-6.45-.2-9.27-.06-5.6-.03-9.68-.27-9.56-.3.16-1.1-.95-1.57,2.07-.57,3.63-.05,11.63-1.3,16.89-.71,2.99-1.81,9.32-1.81,9.32,0,0-2.91,10.07-3.52,10.04-3.33-.14-3.32-7.96-1.82-11.89-.35-3,1-9.63,1-9.63,0,0-.32-14.05-2.32-14.06-1.64,0-7.42,33.72-10.75,33.34-2.72-.31-1.44-10.54-1.44-10.54Z"/>
          <path class="cls-12" d="m1391.82,708.71s18.62-3.22,28.5-6.9c13.17-4.9,21.84-9.19,21.84-9.19,0,0-14.46-61.89-32.51-99.47-7.46-15.53-15-23.03-25.51-24.82-.06-.01-22.17,14.56-21.29,49.65.21,8.24,28.97,90.74,28.97,90.74Z"/>
          <g>
            <path class="cls-9" d="m1334.56,916.69l-24.13,222.05s11.8,46.96,10.38,60.3c-1.42,13.34-26.23,188.34-26.23,188.34l1.05,9.82.03,28.99h-92.1s19.55-9.01,46.89-26.83c2.03-1.32,6.68-5.52,7.82-13.89,7.3-53.94-7.14-233.86-7.14-233.86l-11.38-234.2,94.83-.72Z"/>
            <path class="cls-9" d="m1408.57,963.4c5.2,1.35,13.21,192.28,17.52,200.74,27.31,53.65,33.8,216.75,33.8,216.75l8.15,23.74,8.27,28.21s-27.26,7.23-41.55-.9l1.59-28.08,1.45-25.68-68.9-203.2-37.7-207.27,77.38-4.31Z"/>
            <path class="cls-10" d="m1231.13,1061.13l-3.28-131.73c-.57-37.23,6.8-74.13,21.58-108.03l24.89-57.13c10.07,3.3,19.56,6.11,30.15,7.33,23.02,2.66,45.66.02,68.56-2.68.07.89.18,1.67.32,2.33,4.15,19.4,27.29,62.65,37.04,121.77,11.06,67.1,15.2,167.47,13.82,175.34-105.8,4.81-131.01,8.62-193.07-7.19Z"/>
            <path class="cls-10" d="m1271.55,593.56c11.12-15.64,56.97-60.94,62.06-60.84,14.85.27,63.59.29,73.12,5.27l-.46,86.23c-1.55,7.24-35.2,119.98-33.25,144.67l-.23.23c-28.2,28.03-72.68,25.83-98.47-4.88h0s.11-34.2-3.86-65.4c-6.22-48.87-26.51-66.44,1.09-105.28Z"/>
            <path class="cls-9" d="m1348.56,484.17s-1.29,31.82,1.49,43.88c2.78,12.06,6.48,12.97-17.35,16.64-9.36,1.44-18.39,3.59-18.39,3.59,0,0,2.44-17.71,2.81-25.19.61-12.31-2.75-50.34-2.75-50.34l34.19,11.42Z"/>
            <path class="cls-7" d="m1330.41,500c-4.9,2.73-9.48,4.34-13.7,5.01-.81-15.02-2.33-32.26-2.33-32.26l32.62,10.89c-3.79,6.51-9.17,12.23-16.58,16.36Z"/>
            <path class="cls-9" d="m1340.99,395.07s13.62,4.81,21.13,19.8c7.52,15,10.33,57.15-19.3,73.64-14.66,8.16-31.58,9.71-39.55,2.53-8.12-7.33-7.14-23.6-6.32-37.13,1.61-26.79,7.51-67.36,44.04-58.84Z"/>
            <path class="cls-2" d="m1362.83,447.98c-1.68,7.04.56,13.83,5.01,15.17,4.45,1.34,9.42-3.28,11.1-10.31,1.68-7.04-.56-13.83-5.01-15.17-4.45-1.34-9.42,3.28-11.1,10.31Z"/>
            <path class="cls-13" d="m1436.34,1403.74c12.58,5.77,26.44,2.18,31.88.34l8.43,28.93s-27.61,7.05-41.9-1.08l1.59-28.19Z"/>
            <path class="cls-11" d="m1424.4,1076.79s-.02.03-.03,0c0,0,.03,0,.03,0Z"/>
            <path class="cls-13" d="m1296.6,1433.38h-95.74c-3.54-.33-4.4-3.31-3.18-5.14,2.53-3.78,13.7-6.55,26.25-12.58,22.02,2.39,68.23-13.26,71.71-18.52,2.01,10.53,2.93,35.79.96,36.24Z"/>
            <path class="cls-9" d="m1104.29,665.89c-1.86-2.58-8.06-15.19-8.06-15.19,0,0-6.44-21.61-5.1-21.32.79.17,3.44,3.23,6.58,9.77,1.92,3.99,4.02,10.99,6.01,14.45,3.49,6.06,7.38,8.59,6.42,6.25-.7-1.71-3.09-3.11-5.19-6.74-5.12-8.84-9.64-23.3-7.67-23.01,1.73.26,6.68,10.22,12.16,17.97,2.39,3.38,9.17,7.62,13.43,10.3-.05-1.91-.57-3.83-.87-4.74-.54-1.69-8.14-11.78-5.17-13.05,2.97-1.27,21.07,20.57,21.07,20.57l7.44,12.67.66.48h.03s90.3,35.4,93.32,34.44c7.1-2.25,31.37-72.59,31.37-72.59l50.52,9.11c.73-.39-53.11,104.69-63.15,109.85-8.82,4.52-102.68-44.37-120.31-54.84-24.28-9.35-33.76-20.46-37.7-26.15-2.12-3.06-10.26-16.35-10.26-16.35,0,0-1.74-18.42-.42-18.58,4.45-.55,5.69,16.81,5.69,16.81,0,0,6.03,8.19,7.07,9.27,2.6,2.67,2.14.62,2.14.62Z"/>
            <path class="cls-12" d="m1353.84,574.87c6.9,29.22-29.88,94.38-29.88,94.38,0,0-52.39-25.44-61.6-36.41,0,0,35.68-63.17,37.92-67.07,4.84-8.41,24.9-17.42,34.25-16.29,7.5.91,19.31,25.39,19.31,25.39Z"/>
            <path class="cls-1" d="m1417.57,677.48c60.75-18.77,44.49-73.89,44.14-71.8.18-1.7,4.89-10.6,7.72-16.53,11.8-24.71,7.19-55.74-9.19-77.26,14.56-38.7-4.23-79.72-36.78-84.09-10.18-26.33-34.39-56.38-82.38-46.47-37.96,5.37-14.7,37.57-19.53,73.68-2.45,18.31,3.87,50.6,14.86,65.32-15.82,28.61-25.91,64.62-1.67,86.4-11.88,51.56,20.84,89.91,82.83,70.75Z"/>
            <path class="cls-9" d="m1318.91,453.67c0,7.94,2.88,14.37,6.43,14.37s6.44-6.43,6.44-14.37-2.88-14.37-6.44-14.37-6.43,6.44-6.43,14.37Z"/>
          </g>
        </g>
      </g>
    </g>
  </g>
</svg>