<svg xmlns="http://www.w3.org/2000/svg" width="118" height="62" viewBox="0 0 118 62">
  <g fill="none" fill-rule="evenodd">
    <path fill="#F1C350" d="M92,17.2391366 C91.8985327,14.573502 91.6901269,11.9273648 91.4488934,9.35071805 L91.2956977,7.71444237 L89.6881378,8.01690091 C84.0422799,9.08525444 72.67894,3.31654531 68.3630992,0.522928308 L67.5553401,0 L66.7470836,0.522928308 C62.2213448,3.4530266 51.0549708,9.16424361 45.4214481,8.10338905 L43.8148829,7.80193038 L43.6616873,9.43720619 C43.2259749,14.0860688 42.8912323,18.7949233 43.0329881,23.377795 L46.0287596,23.377795 C45.8939673,19.3978406 46.1386825,15.295903 46.4963049,11.2199618 C53.2295538,11.415435 63.1748387,6.2481434 67.5558375,3.55351282 C69.8537728,4.96281961 73.5135581,6.93204964 77.3877178,8.50483401 C81.9388235,10.3525807 85.7055473,11.2359596 88.6137784,11.1374731 C88.7659794,12.8862333 88.8953004,14.6624898 88.9783643,16.448245 C90.0576975,16.5937251 91.066899,16.8581888 92,17.2391366 L92,17.2391366 Z M50.7590246,45.9282034 C51.0927724,46.3046518 51.4354731,46.6776007 51.7965772,47.0435505 C54.8485536,50.1346267 57.4916766,52.1423515 59.6155259,53.7551303 C62.2636228,55.7663546 64.1765794,57.2191554 65.7020702,59.7033149 L67.1131616,62 L68.8599904,58.4659845 C70.236762,56.2547877 72.0049785,55.1519388 74.4441721,53.6306474 C75.9239032,52.7077739 77.63492,51.6379206 79.5384261,50.1186289 L79.5384261,46.1776692 C77.0295981,48.4803535 74.8371091,49.8556649 72.8704346,51.0819968 C70.5322108,52.5407968 68.4809803,53.8196215 66.8172154,56.1453027 C65.2638708,54.2850577 63.443926,52.9027472 61.4150779,51.3619584 C59.5145561,49.9186563 57.3892146,48.3028778 54.9236593,45.9257037 L50.7590246,45.9282034 Z"/>
    <path fill="#414042" d="M13.2203844 34.7761874C13.2203844 37.1184125 12.8367527 38.8011711 12.0694894 39.8223813 11.3017291 40.8446324 10.0305765 41.3552375 8.25454084 41.3552375 7.33372547 41.3552375 6.52819837 41.2407287 5.8374626 41.0106701 5.14672684 40.7816526 4.57127935 40.4079375 4.11112013 39.8910865 3.65046397 39.374756 3.30509609 38.6975927 3.07501648 37.8590761 2.84493687 37.02108 2.7296486 35.9936239 2.7296486 34.7761874L2.7296486 19.4824984 0 19.4824984 0 36.1195836C0 38.7371503.690735764 40.689525 2.07220729 41.9751464 3.45318189 43.2618087 5.50302723 43.9040989 8.22174332 43.9040989 9.36120886 43.9040989 10.4027788 43.7432661 11.3459561 43.422121 12.2881395 43.1004554 13.0941636 42.6013012 13.7630343 41.9236174 14.4314081 41.2464541 14.9467268 40.3793103 15.3084935 39.3232271 15.6702601 38.2671438 15.8511435 37.0153546 15.8511435 35.56838L15.8511435 19.4824984 13.2203844 19.4824984 13.2203844 34.7761874zM33.3794331 43.5944047L33.3794331 33.1918022C33.3794331 31.7682498 33.2641448 30.5908913 33.0340652 29.6612882 32.8039856 28.7311646 32.463587 27.990501 32.0143603 27.4392973 31.5651336 26.8880937 31.0001217 26.5039688 30.3208154 26.2853611 29.6410121 26.0672739 28.8518838 25.9579701 27.9529334 25.9579701 26.7250139 25.9579701 25.6675422 26.1937541 24.7795244 26.6642811 23.8915065 27.1353286 23.1848689 27.7380612 22.6586177 28.4724789L22.5269307 28.4724789 22.033477 26.3717632 20.1918463 26.3717632 20.1918463 43.5944047 22.8231023 43.5944047 22.8231023 31.8140534C23.1297094 30.8266753 23.6614269 30.0053351 24.4177577 29.3510735 25.1740885 28.696812 26.1331677 28.3694209 27.2954921 28.3694209 28.6108717 28.3694209 29.5152883 28.8232921 30.008245 29.7299935 30.5016987 30.6372154 30.7481771 31.986337 30.7481771 33.7773585L30.7481771 43.5944047 33.3794331 43.5944047zM37.7529334 43.5944047L40.3836925 43.5944047 40.3836925 26.3717632 37.7529334 26.3717632 37.7529334 43.5944047zM37.7037371 22.4446324C38.0431418 22.7891997 38.4764667 22.9614834 39.0027179 22.9614834 39.5289691 22.9614834 39.9781958 22.7891997 40.350895 22.4446324 40.7235941 22.1000651 40.9099437 21.6644112 40.9099437 21.1355888 40.9099437 20.6078074 40.7235941 20.1539362 40.350895 19.7750163 39.9781958 19.3966168 39.5289691 19.2071568 39.0027179 19.2071568 38.4764667 19.2071568 38.0431418 19.3966168 37.7037371 19.7750163 37.3633386 20.1539362 37.1938847 20.6078074 37.1938847 21.1355888 37.1938847 21.6644112 37.3633386 22.1000651 37.7037371 22.4446324L37.7037371 22.4446324zM45.8096952 26.3717632L42.784372 26.3717632 49.9203184 43.9733247 51.0384159 43.9733247 58.0431723 26.3717632 55.2151311 26.3717632 51.5318696 36.3949252 50.7099437 39.7364997 50.6766493 39.7364997 49.7563308 36.4641509 45.8096952 26.3717632zM72.184372 43.5944047L76.919639 43.5944047 68.6323006 19.3102147 65.3108057 19.3102147 57.0239643 43.5944047 61.5291517 43.5944047 63.2718929 38.2551724 70.3427412 38.2551724 72.184372 43.5944047zM66.100431 29.1272609L66.7906698 25.3037085 66.9551544 25.3037085 67.6458902 29.0929083 69.3558339 34.4659727 64.4232848 34.4659727 66.100431 29.1272609zM98 46.4186077C97.4737488 46.5565387 96.9584301 46.6538712 96.4540439 46.7116461 95.9496577 46.76838 95.456204 46.7975277 94.9741798 46.7975277 93.8779474 46.7975277 92.8368744 46.6845804 91.849967 46.4586858 90.8635566 46.2322707 89.8985143 45.9891997 88.9563308 45.7299935 88.0131535 45.4697463 87.0868719 45.2271958 86.1774859 45.0013012 85.2671061 44.7748861 84.3522539 44.6619388 83.4314386 44.6619388 82.7735003 44.6619388 82.1374271 44.7306441 81.5242128 44.8685751L81.5242128 48.9331165C82.0057401 48.7951854 82.5106232 48.7264802 83.0368744 48.7264802 83.8473708 48.7264802 84.7140206 48.8472349 85.634836 49.0882238 86.5556513 49.3292128 87.5092642 49.5878985 88.4956747 49.8632401 89.482582 50.1385817 90.50179 50.3972674 91.5542924 50.6382563 92.6067948 50.8792453 93.6915978 51 94.8096952 51 95.8840627 51 96.9474976 50.8490566 98 50.5482108L98 46.4186077zM76.7556513 36.6707872C77.1502155 38.2093689 77.7470311 39.5298634 78.5475889 40.6317502 79.3476497 41.7341574 80.3618883 42.5841249 81.5898078 43.1806116 82.8172304 43.7776187 84.2642969 44.0763826 85.9305106 44.0763826 89.0437909 44.0763826 91.4499366 42.9911516 93.1489478 40.8212101 94.847959 38.6512687 95.6977131 35.5569291 95.6977131 31.5381913 95.6977131 29.6555628 95.500431 27.9446975 95.1058668 26.4061158 94.7113027 24.8675342 94.108027 23.5470397 93.2970336 22.4446324 92.4860403 21.3427456 91.4663354 20.4932986 90.2389128 19.895771 89.0104964 19.2987638 87.5748593 19 85.9305106 19 82.7953653 19 80.3837534 20.085231 78.6956747 22.2551724 77.007099 24.4251139 76.1638051 27.519974 76.1638051 31.5381913 76.1638051 33.4213403 76.3610872 35.1327261 76.7556513 36.6707872L76.7556513 36.6707872zM82.2144516 25.2178269C83.09104 23.8744307 84.329892 23.2024723 85.9305106 23.2024723 86.851326 23.2024723 87.6295218 23.4153546 88.2655951 23.8395576 88.9011713 24.2648016 89.41649 24.8560833 89.8110542 25.6139232 90.2061153 26.3717632 90.4963237 27.2555628 90.6826733 28.2658426 90.8685259 29.2766428 90.9624461 30.3670787 90.9624461 31.5381913 90.9624461 34.477944 90.523655 36.6015615 89.6465696 37.9106051 88.7694843 39.2196487 87.5306323 39.8739102 85.9305106 39.8739102 85.0534253 39.8739102 84.2970945 39.6672739 83.6615182 39.2540013 83.025445 38.8407287 82.50466 38.2671438 82.0996603 37.5316851 81.6936666 36.7972674 81.3925257 35.9186727 81.1952436 34.8969421 80.9979616 33.8752115 80.8990721 32.7556278 80.8990721 31.5381913 80.8990721 28.6681848 81.3373663 26.5612232 82.2144516 25.2178269L82.2144516 25.2178269zM101.337641 43.6444444C101.562398 43.881137 101.863592 44 102.240717 44 102.632522 44 102.944853 43.881137 103.176697 43.6444444 103.409046 43.4077519 103.524968 43.0966408 103.524968 42.7111111 103.524968 42.3111111 103.409046 41.9963824 103.176697 41.7664083 102.944853 41.5369509 102.632522 41.4222222 102.240717 41.4222222 101.863592 41.4222222 101.562398 41.5369509 101.337641 41.7664083 101.112378 41.9963824 101 42.3111111 101 42.7111111 101 43.0966408 101.112378 43.4077519 101.337641 43.6444444L101.337641 43.6444444zM106.855314 43.7333333L108.596671 43.7333333 108.596671 32.6222222 106.855314 32.6222222 106.855314 43.7333333zM106.822916 30.0888889C107.047673 30.3111111 107.334187 30.4222222 107.682458 30.4222222 108.03073 30.4222222 108.327874 30.3111111 108.574904 30.0888889 108.821428 29.8666667 108.944942 29.5855297 108.944942 29.2444444 108.944942 28.903876 108.821428 28.6108527 108.574904 28.3669251 108.327874 28.1224806 108.03073 28 107.682458 28 107.334187 28 107.047673 28.1224806 106.822916 28.3669251 106.597654 28.6108527 106.485275 28.903876 106.485275 29.2444444 106.485275 29.5855297 106.597654 29.8666667 106.822916 30.0888889L106.822916 30.0888889zM111.099872 34.1777778L112.797695 34.1777778 112.797695 40.6666667C112.797695 41.8666667 112.978918 42.7219638 113.341869 43.2330749 113.704315 43.744186 114.32847 44 115.213828 44 115.750409 44 116.25105 43.9405685 116.715749 43.8222222 117.179942 43.703876 117.608195 43.5483204 118 43.3555556L117.608195 42C117.288777 42.1333333 116.99872 42.2408269 116.737516 42.3219638 116.476312 42.4036176 116.156895 42.4444444 115.77977 42.4444444 115.32975 42.4444444 115.010333 42.2852713 114.822023 41.9669251 114.633207 41.648062 114.539052 41.103876 114.539052 40.3333333L114.539052 34.1777778 117.49936 34.1777778 117.49936 32.6222222 114.539052 32.6222222 114.539052 29.9111111 112.797695 30.4222222 112.797695 32.6222222 111.099872 32.6222222 111.099872 34.1777778z"/>
  </g>
</svg>
