<?xml version="1.0" encoding="UTF-8"?>
<svg id="Livello_2" data-name="Livello 2" xmlns="http://www.w3.org/2000/svg" viewBox="0 0 118.5 62">
  <defs>
    <style>
      .cls-1 {
        fill: #fff;
      }

      .cls-2 {
        fill: #f1c350;
        fill-rule: evenodd;
      }
    </style>
  </defs>
  <g id="Livello_1-2" data-name="Livello 1">
    <g>
      <path class="cls-2" d="m92.25,17.24c-.1-2.67-.31-5.31-.55-7.89l-.15-1.64-1.61.3c-5.65,1.07-17.01-4.7-21.33-7.49l-.81-.52-.81.52c-4.53,2.93-15.69,8.64-21.33,7.58l-1.61-.3-.15,1.64c-.44,4.65-.77,9.36-.63,13.94h3c-.13-3.98.11-8.08.47-12.16,6.73.2,16.68-4.97,21.06-7.67,2.3,1.41,5.96,3.38,9.83,4.95,4.55,1.85,8.32,2.73,11.23,2.63.15,1.75.28,3.53.36,5.31,1.08.15,2.09.41,3.02.79h0Zm-41.24,28.69c.33.38.68.75,1.04,1.12,3.05,3.09,5.7,5.1,7.82,6.71,2.65,2.01,4.56,3.46,6.09,5.95l1.41,2.3,1.75-3.53c1.38-2.21,3.14-3.31,5.58-4.84,1.48-.92,3.19-1.99,5.09-3.51v-3.94c-2.51,2.3-4.7,3.68-6.67,4.9-2.34,1.46-4.39,2.74-6.05,5.06-1.55-1.86-3.37-3.24-5.4-4.78-1.9-1.44-4.03-3.06-6.49-5.44h-4.16Z"/>
      <g>
        <path class="cls-1" d="m118.25,43.36c-.39.19-.82.34-1.28.46-.47.12-.97.18-1.51.18-.88,0-1.51-.26-1.87-.77s-.54-1.36-.54-2.56v-6.49h-1.7v-1.56h1.7v-2.2l1.74-.51v2.71h2.96v1.56h-2.96v6.15c0,.77.09,1.32.28,1.64s.51.47.96.47c.38,0,.7-.04.96-.12s.55-.19.87-.32l.39,1.36Z"/>
        <rect class="cls-1" x="107.11" y="32.62" width="1.74" height="11.11"/>
        <path class="cls-1" d="m107.93,30.42c-.35,0-.63-.11-.86-.33-.22-.22-.33-.5-.33-.85s.11-.63.33-.87c.23-.25.51-.37.86-.37s.65.12.89.37c.25.24.37.53.37.87s-.12.63-.37.85c-.24.22-.54.33-.89.33Z"/>
        <path class="cls-1" d="m103.43,41.77c.23.23.34.54.34.94s-.11.7-.34.93-.55.36-.94.36-.68-.12-.9-.36c-.23-.23-.34-.54-.34-.93s.11-.71.34-.94c.22-.23.52-.35.9-.35s.7.12.94.35Z"/>
        <path class="cls-1" d="m98.25,46.42v4.13c-1.05.3-2.12.45-3.19.45s-2.2-.12-3.26-.36c-1.05-.24-2.07-.5-3.05-.78-.99-.27-1.94-.53-2.87-.77-.92-.24-1.78-.36-2.59-.36-.53,0-1.03.07-1.52.2v-4.06c.62-.14,1.25-.21,1.91-.21.92,0,1.84.11,2.75.34s1.83.47,2.78.73c.94.26,1.9.5,2.89.73.99.22,2.03.34,3.12.34.49,0,.98-.03,1.48-.09.51-.06,1.02-.15,1.55-.29Z"/>
        <path class="cls-1" d="m95.36,26.41c.39,1.53.59,3.25.59,5.13,0,4.02-.85,7.11-2.55,9.28s-4.11,3.26-7.22,3.26c-1.67,0-3.11-.3-4.34-.9s-2.24-1.45-3.04-2.55-1.4-2.42-1.79-3.96c-.4-1.54-.6-3.25-.6-5.13,0-4.02.85-7.11,2.54-9.28,1.68-2.17,4.1-3.26,7.23-3.26,1.64,0,3.08.3,4.31.9,1.23.59,2.25,1.44,3.06,2.54.81,1.11,1.41,2.43,1.81,3.97Zm-4.15,5.13c0-1.17-.09-2.26-.28-3.27-.18-1.01-.47-1.9-.87-2.66-.39-.75-.91-1.35-1.54-1.77-.64-.42-1.42-.64-2.34-.64-1.6,0-2.84.67-3.72,2.02-.87,1.34-1.31,3.45-1.31,6.32,0,1.22.1,2.34.3,3.36.19,1.02.49,1.9.9,2.63.4.74.93,1.31,1.56,1.72.64.42,1.39.62,2.27.62,1.6,0,2.84-.65,3.72-1.96.87-1.31,1.31-3.43,1.31-6.37Z"/>
        <path class="cls-1" d="m68.88,19.31l8.29,24.28h-4.74l-1.84-5.33h-7.07l-1.74,5.33h-4.51l8.29-24.28h3.32Zm.73,15.16l-1.71-5.38-.69-3.79h-.17l-.69,3.83-1.68,5.34h4.94Z"/>
        <polygon class="cls-1" points="50.96 39.74 51.78 36.39 55.47 26.37 58.29 26.37 51.29 43.97 50.17 43.97 43.03 26.37 46.06 26.37 50.01 36.46 50.93 39.74 50.96 39.74"/>
        <rect class="cls-1" x="38" y="26.37" width="2.63" height="17.22"/>
        <path class="cls-1" d="m40.6,22.44c-.37.35-.82.52-1.35.52s-.96-.17-1.3-.52c-.34-.34-.51-.78-.51-1.3s.17-.99.51-1.36c.34-.38.78-.57,1.3-.57s.98.19,1.35.57c.37.37.56.83.56,1.36s-.19.96-.56,1.3Z"/>
        <path class="cls-1" d="m33.63,33.19v10.4h-2.63v-9.81c0-1.79-.25-3.14-.74-4.05s-1.4-1.36-2.71-1.36c-1.17,0-2.13.33-2.88.98-.76.66-1.29,1.48-1.6,2.46v11.78h-2.63v-17.22h1.84l.5,2.1h.13c.52-.73,1.23-1.33,2.12-1.81.89-.47,1.95-.7,3.17-.7.9,0,1.69.11,2.37.33.68.21,1.25.6,1.69,1.15.45.55.79,1.29,1.02,2.22s.35,2.11.35,3.53Z"/>
        <path class="cls-1" d="m8.5,41.36c1.78,0,3.05-.52,3.82-1.54s1.15-2.7,1.15-5.04v-15.3h2.63v16.09c0,1.45-.18,2.7-.54,3.75-.36,1.06-.88,1.93-1.55,2.6-.67.68-1.47,1.18-2.41,1.5-.95.32-1.99.48-3.13.48-2.72,0-4.77-.64-6.15-1.92-1.38-1.29-2.07-3.24-2.07-5.86v-16.64h2.73v15.3c0,1.21.11,2.24.35,3.08.23.84.57,1.51,1.03,2.03s1.04.89,1.73,1.12,1.49.35,2.41.35Z"/>
      </g>
    </g>
  </g>
</svg>